<svg id="Logo_AFA_redibuixat" data-name="Logo AFA redibuixat" xmlns="http://www.w3.org/2000/svg" viewBox="0 0 425.2 425.2"><defs><style>.cls-1{fill:#9278aa;}.cls-2{fill:#fff;}</style></defs><path class="cls-1" d="M101.71,210.4c0-1,23.24-7.88,39.51-1.36,30.66,12.3,46.12,37.72,46.92,39.67,2.11,5.22-1.16,10.22-7.22,16.78s-32.53,16.33-52.21,14.56S107.59,268.67,108,265.41c1.1-8.39,24.08-29.61,18.43-44-5.59-8.73-23.33-10.13-23.92-10.22S101.71,211.42,101.71,210.4Z"/><path class="cls-1" d="M147.59,202.08s-8.6-21-26.82-30.37c-10.06-5.16-17-.3-20.59,7-2.08,7.26,6.5,13.93,12.89,15.56S136.62,202.08,147.59,202.08Z"/><path class="cls-1" d="M92.47,192.45s-5.48,4.15-5.92,6.67,1.92,5.18,5.92,5.77,9.93-4.29,10.23-7S97.81,191.27,92.47,192.45Z"/><path class="cls-1" d="M79.88,209c3.71-4.1,10.52.74,5.63,4.74S74.4,215.11,79.88,209Z"/><path class="cls-1" d="M118.85,126.82s-2.38,16.3,7.11,31.41,37.92,45.48,41.18,49.26,24,17.4,24,17.4,0-42.37-16-63.11C157.44,138.84,118.85,126.82,118.85,126.82Z"/><path class="cls-1" d="M185.81,162.67S184.3,126.12,175.73,109c-4-11.65-14.81-20.15-26.66-9.77s-9.71,15.36-7.41,21S185.81,162.67,185.81,162.67Z"/><path class="cls-1" d="M135.9,121s-.85-5.66-3.12-8.63-5.23-4-6.79,0-1,6.94.57,7.78S134.2,121.17,135.9,121Z"/><path class="cls-1" d="M193.73,137.71S204,103,211.73,87.27s16.89-34,16.89-34-24.51-4.67-37.48,25.11C180.4,103,193.73,137.71,193.73,137.71Z"/><path class="cls-1" d="M235.29,53S192.62,123.71,216,203.93c52-57.55,52.94-71,55.11-82.86C280.85,65.93,235.29,53,235.29,53Z"/><path class="cls-1" d="M232.62,213.34c-6.16,4.93-5.66,4.9-5.18,4,25.92-48.89,64.44-72.74,82.37-72.74,26.66,0,26.07,55.11,20.15,59.33-3.25,2.31-19.56,4.66-41.34,3.56-20.87-1.07-20.28-.46-21.81-1.43a1.76,1.76,0,0,1-.48-2.81c.07-.1,2-5.1,10.59-9.61,10.52-5.51,12.05-6.2,10.52-8.89S276.77,187,276.77,187,238.79,208.41,232.62,213.34Z"/><path class="cls-1" d="M232.5,233.55a1.24,1.24,0,0,1-.83-2c9.37-12.22,27.2-27.88,54.14-13.95,3.26,1.68,4.67,3.26,4.3,5.67C288.54,233.57,278.88,239.79,232.5,233.55Z"/><path class="cls-1" d="M272.44,152s-.26-27.86,14.85-33,18.22.3,18.67,1.18,8,10.54-1.32,15.73S272.44,152,272.44,152Z"/><path class="cls-1" d="M294.55,107s2.81-1.33,3.85-2.82,1.63-7.4-4.59-11-13.05-5-10.82,6.89C285.07,111.12,294.55,107,294.55,107Z"/><path class="cls-1" d="M302.29,112.63a2,2,0,0,1-.32-2.84c2.3-2,8.41-7.13,11.38-1.33C316.47,114.57,306.9,116.66,302.29,112.63Z"/><path class="cls-1" d="M160.89,81.32a20.81,20.81,0,0,0,4.32,6.24c2.69,2.45,6.1,5,9.26,4.75s9.12-2.88,9.07-7.49S178.75,68,171.59,67.69,159.5,76.61,160.89,81.32Z"/><path class="cls-1" d="M146.63,92.93s9.08-1.39,10.18-6-4.42-7.92-6.82-8-8.4,1.72-9.26,5.08S141.45,92.69,146.63,92.93Z"/><path class="cls-1" d="M112.27,347.29l.22,1.2a8.87,8.87,0,0,1-4.16,3.64,2.82,2.82,0,0,1-2.8-.24,2,2,0,0,1-.9-2.92,9.62,9.62,0,0,1,1.54-2.33,22.35,22.35,0,0,1,14.29-7.41,10.84,10.84,0,0,1,4.26.51,6.68,6.68,0,0,1,4.51,8.72,14.08,14.08,0,0,1-3.34,5.67c-.28.29-.56.6-.91,1,1.23.44,2.36.78,3.44,1.24,6,2.53,7.66,8.75,3.71,14a16.74,16.74,0,0,1-12.39,6.75,29,29,0,0,1-9.64-.74,12,12,0,0,1-5.7-3.47,5.9,5.9,0,0,1-1-1.48,2.41,2.41,0,0,1,1.21-3.42A2.46,2.46,0,0,1,108,369a4.27,4.27,0,0,1,.35.67,5.46,5.46,0,0,0,4.93,3.5,18.07,18.07,0,0,0,8.19-.76,11,11,0,0,0,6.71-5.9,4.17,4.17,0,0,0-1.23-5.47,10.69,10.69,0,0,0-6.43-2.52,8.56,8.56,0,0,0-2.71.61c-1.83.54-3.63,1.26-5.49,1.63a6.85,6.85,0,0,1-3.23-.26c-1.21-.36-1.46-1.29-.92-2.46a4.1,4.1,0,0,1,3.22-2.45c1.59-.24,3.2-.39,4.81-.52a5.9,5.9,0,0,0,3.8-1.6,36.62,36.62,0,0,0,3.11-3.37,5.65,5.65,0,0,0,1.27-4.05,2.45,2.45,0,0,0-2.37-2.52,2.78,2.78,0,0,0-.64-.06A17.5,17.5,0,0,0,112.27,347.29Z"/><path class="cls-1" d="M169.28,357.62a24.2,24.2,0,0,1-4.38,13.85A13.93,13.93,0,0,1,140.68,369c-2.52-5.66-2.18-11.36.14-17a21.68,21.68,0,0,1,5.9-8.53,13.8,13.8,0,0,1,10.62-3.08,10.63,10.63,0,0,1,7.42,4.3A20.4,20.4,0,0,1,169.28,357.62Zm-4.86-.35a16.55,16.55,0,0,0-2.4-9.13,7.6,7.6,0,0,0-10.84-2.2,14.07,14.07,0,0,0-3.32,3.12,19,19,0,0,0-3.48,15.45,9.43,9.43,0,0,0,8.21,7.95c4.49.55,7.65-1.29,9.8-5.68A22.23,22.23,0,0,0,164.42,357.27Z"/><path class="cls-1" d="M187.79,347.48c.33-.32.55-.48.72-.68,3.51-4.07,10-2.91,12.81.48a13.33,13.33,0,0,1,3.15,7.2,27.16,27.16,0,0,1-2.25,15.23c-3.08,6.32-8.51,8.21-14.91,5.25a3.29,3.29,0,0,0-.59-.11,7.36,7.36,0,0,0-.14,1.28c.21,3.41.36,6.84.72,10.24a18.15,18.15,0,0,0,1.18,3.78c.73,2.07-.11,3.39-2.28,3.54-2.61.17-4-.69-4.65-3.21a28.19,28.19,0,0,1-.91-6c-.12-5.14-.07-10.29,0-15.44,0-2.6.22-5.19.29-7.79.11-4,.17-8,.27-11.94a50.57,50.57,0,0,1,.27-5.79,3.46,3.46,0,0,1,3.89-3.25,2.42,2.42,0,0,1,2.44,2.58C187.8,344.3,187.79,345.78,187.79,347.48Zm-1.14,19.07c1.22,1.39,2.25,2.69,3.42,3.87a3.49,3.49,0,0,0,5.39-.16,7.44,7.44,0,0,0,1.54-2.7,23.43,23.43,0,0,0,1.11-5.51,82.82,82.82,0,0,0-.22-9.58,3.26,3.26,0,0,0-3.14-3.2,19.5,19.5,0,0,0-2.56,2C188.17,355.63,186.89,361,186.65,366.55Z"/><path class="cls-1" d="M226,374.14c-2.75.37-5.29.88-7.86,1a12,12,0,0,1-8-2.79c-2.94-2.26-3.3-5.71-.73-8.37A14.93,14.93,0,0,1,220,359c1.92-.06,3.85,0,6,0,.07-2.54.25-4.89-.9-7.1-.92-1.79-2.5-2.17-4.36-2s-3.58.88-4.24,2.88a25.57,25.57,0,0,0-.65,3.27,2.32,2.32,0,0,1-3.13.41c-1.31-.67-2.4-1.56-2.43-3.26-.08-4.38,3.71-8.33,8.39-8.71,7.47-.6,12.43,3.25,13.92,10.75.95,4.83.7,9.69.54,14.56-.06,1.6-.17,3.2-.38,4.79-.28,2.15-1,2.8-2.93,2.86-2.24.06-3.27-.71-3.67-2.73C226.06,374.48,226,374.21,226,374.14Zm-.25-10c-1.27-.93-2.73-.51-4.13-.46a9.12,9.12,0,0,0-5.31,1.55,2.5,2.5,0,0,0-1.1,2.89,2.76,2.76,0,0,0,1.65,1.58,8.27,8.27,0,0,0,8.19-2.31A2.83,2.83,0,0,0,225.74,364.14Z"/><path class="cls-1" d="M288.81,362a23.72,23.72,0,0,1,4-13.14,15.41,15.41,0,0,1,3.47-3.73,7.82,7.82,0,0,1,8.74-.78,15.58,15.58,0,0,1,8.74,11.78c.87,5,.47,9.81-2.16,14.27-3.64,6.17-10.08,7.37-15.68,5.11-4.29-1.72-6.07-5.42-6.82-9.72C288.92,364.59,288.91,363.3,288.81,362Zm6.76-.08c.1,1.26.15,2.54.33,3.8a10,10,0,0,0,.66,2.39,5.07,5.07,0,0,0,8.56,1.57,7.49,7.49,0,0,0,1.61-2.67,25.83,25.83,0,0,0,1.13-5.33,19.05,19.05,0,0,0-1.13-9.15,4.48,4.48,0,0,0-7.59-1.55,10.13,10.13,0,0,0-2,3A19,19,0,0,0,295.57,362Z"/><path class="cls-1" d="M331.08,356.42c.5-1,.75-1.62,1.07-2.19a4.38,4.38,0,0,0,.18-3.85,3,3,0,0,0-5.14-.93c-2.63,3-2.15,7.94,1.23,10,2.39,1.46,5.07,2.45,7.61,3.67a29,29,0,0,1,3.22,1.7c1.77,1.15,2.17,2.2,1.55,4.26-1.17,3.91-4.17,5.64-7.92,6.44-5,1.08-9.33-1-13.63-3.15a9.47,9.47,0,0,1-1.67-1.07c-1.67-1.32-1.45-3.42.55-4.17a19.69,19.69,0,0,1,3.7-.69c2.12,3.86,5.43,4.57,9.07,4.48,2-.05,2.43-.8,1.64-3l-4.92-1.6a12.74,12.74,0,0,1-6.28-19.92c2.32-3.06,5.56-4.16,9.13-2.76a24.18,24.18,0,0,1,5.62,3.13c3.19,2.4,4,6,2.43,9.65a3,3,0,0,1-3.6,1.87A30.47,30.47,0,0,1,331.08,356.42Z"/><path class="cls-1" d="M283.63,357.54c-2.47,1.35-4.57.9-6.6-1.46a14.61,14.61,0,0,1,.74-1.72,4.44,4.44,0,0,0,.34-3.68,2.69,2.69,0,0,0-2.24-2.17,3,3,0,0,0-3.12,1.08,6.64,6.64,0,0,0,1.5,10c2.4,1.45,5.09,2.41,7.63,3.64a30.09,30.09,0,0,1,3.47,1.93,3,3,0,0,1,1.29,3.49c-.76,3.48-4,6.24-8.08,6.93a15,15,0,0,1-8.93-1.07,51.69,51.69,0,0,1-6.23-3.11c-1.94-1.21-1.6-3.57.57-4.31a19.88,19.88,0,0,1,3.56-.59,9.58,9.58,0,0,0,9.56,4.43c1.58-.26,1.87-.93,1.14-3-1.51-.49-3.19-.89-4.75-1.56-9.53-4.13-11.53-12.8-6.55-19.82a7.47,7.47,0,0,1,9.38-2.86,26.63,26.63,0,0,1,4.56,2.36A8.17,8.17,0,0,1,283.63,357.54Z"/><path class="cls-1" d="M241.83,366.42c2.23,3.92,8.08,5.78,11,3.73a6.13,6.13,0,0,0,.11-.91,9,9,0,0,0-.22-1.22c-1.15-.38-2.37-.87-3.64-1.2a15,15,0,0,1-8.33-6c-3.51-4.79-2.47-12.3,2.13-16.08a7.31,7.31,0,0,1,7.36-1.2,23.69,23.69,0,0,1,4.61,2.25c4.25,2.56,5.68,7.32,3.19,11.6-2.33,1.55-4.4,1.19-6.7-1.29.24-.56.46-1.23.79-1.84a4.6,4.6,0,0,0,.25-3.7,2.67,2.67,0,0,0-2.31-2.09,3,3,0,0,0-3.07,1.17,6.68,6.68,0,0,0,1.78,10c2.18,1.28,4.59,2.17,6.89,3.25,1.05.5,2.12,1,3.12,1.56,2.37,1.42,2.86,2.93,1.73,5.46-1.42,3.21-4.1,4.84-7.42,5.51-5.9,1.19-10.85-1.26-15.58-4.27-1.72-1.1-1.39-3.29.54-4.05A21.84,21.84,0,0,1,241.83,366.42Z"/><path class="cls-1" d="M318.7,313.8c.13-2.39.28-4.67-1-6.71a2.91,2.91,0,0,0-4.34-.64,7.31,7.31,0,0,0-2.68,5.07c0,.3-.07.61-.09.9-1.13,0-1.88-.67-1.77-1.64A10.47,10.47,0,0,1,311.2,305a3.72,3.72,0,0,1,3.44-1.2,7.71,7.71,0,0,1,4.93,2.35,4.63,4.63,0,0,1,1.45,3.18c.07,4.88.11,9.75.17,14.63a3.25,3.25,0,0,1-.07.48c-1.39.75-2.25.29-2.29-1.19,0-.51,0-1,0-1.77l-1.13.6a8.2,8.2,0,0,1-7.68.45c-3.35-1.53-3.74-4.31-.9-6.62a8.75,8.75,0,0,1,6-2.16C316.27,313.83,317.42,313.8,318.7,313.8Zm-5.38,7.66a6,6,0,0,0,4.34-1.77,3.62,3.62,0,0,0,1.12-2.64,1.44,1.44,0,0,0-1.13-1.58,8.07,8.07,0,0,0-6.26,1.06,2.58,2.58,0,0,0,1.27,4.86Z"/><path class="cls-1" d="M202.85,317.12c1.07.6,1.33,1.08,1.06,2a3.65,3.65,0,0,1-.72,1.38,8.51,8.51,0,0,1-7.86,2.86c-2.43-.4-4-2.26-4.33-5.06a21.68,21.68,0,0,1,2-12c1.35-2.93,3.13-3.44,6-1.92a10.69,10.69,0,0,1,3.48,3,4.65,4.65,0,0,1,.68,4.68,7.32,7.32,0,0,1-5.9,4.82,6.21,6.21,0,0,1-2.22-.33,16.94,16.94,0,0,1-1.67-.58c-.18,1.91,0,3.51,1.2,4.82a3.17,3.17,0,0,0,3.24.7,6.35,6.35,0,0,0,3.55-2.47C201.82,318.38,202.33,317.77,202.85,317.12Zm-1.94-7.27a12.21,12.21,0,0,0-.64-2.07c-1.17-2.41-3.67-2.56-5.16-.35a8.29,8.29,0,0,0-1.32,3.95,3.13,3.13,0,0,0,1.56,3.39,3.54,3.54,0,0,0,3.82-.63A5.66,5.66,0,0,0,200.91,309.85Z"/><path class="cls-1" d="M214.26,319c.42-1.12.69-1.29,1.81-1.21,1.58,2.59,4.09,3.66,6.86,4.27,1,.22,1.73-.3,2.28-1.43a7.36,7.36,0,0,0-1.08-1.19c-.85-.61-1.81-1.07-2.67-1.67a26.28,26.28,0,0,1-3.52-2.64,8,8,0,0,1-.22-10.89,3.48,3.48,0,0,1,3.9-1.11,8.7,8.7,0,0,1,4.18,2.72,4.92,4.92,0,0,1,.89,1.75,10.43,10.43,0,0,1-.46,6.28,2,2,0,0,1-2.48-.5,8.5,8.5,0,0,0,.58-5.91,4.71,4.71,0,0,0-.65-1.53,2.35,2.35,0,0,0-3.86-.23,5.88,5.88,0,0,0,.32,8.32,36.77,36.77,0,0,0,3.92,2.82c1,.68,2,1.24,3,1.95,1.38,1,1.41,2.27,0,3.26-2.48,1.74-5.26,2.36-8,1a26,26,0,0,1-4.31-3.32A2.51,2.51,0,0,1,214.26,319Z"/><path class="cls-1" d="M280.19,313.67a13.52,13.52,0,0,1-1.91,7.5,6.4,6.4,0,0,1-7.79,2.73,5.8,5.8,0,0,1-3.85-4.14,16.43,16.43,0,0,1,2.42-14.32,6,6,0,0,1,1.6-1.5,3.78,3.78,0,0,1,4.26-.19,10.08,10.08,0,0,1,5.15,8.1C280.15,312.54,280.16,313.24,280.19,313.67Zm-2.18-.16c0-.33,0-.93-.09-1.52a10.94,10.94,0,0,0-1.41-4.69,3.16,3.16,0,0,0-4.89-.87,7,7,0,0,0-1.79,2.29,14.1,14.1,0,0,0-1.24,8.41,14.43,14.43,0,0,0,1,3.39,3.31,3.31,0,0,0,2.29,1.88,4.09,4.09,0,0,0,4.66-2.23A12.84,12.84,0,0,0,278,313.51Z"/><path class="cls-1" d="M253.38,316.62c1.29.86,1.56,1.67.89,2.69-1.62,2.49-3.75,4.32-6.86,4.47a5.93,5.93,0,0,1-5.87-3.34,9,9,0,0,1-1-4.69,24.69,24.69,0,0,1,2.27-9.45,10.26,10.26,0,0,1,1.65-2.42,2.76,2.76,0,0,1,3.25-.83c.23.09.47.15.69.25,4,1.86,4.56,2.91,4.37,7a6.22,6.22,0,0,1-1,3.79,1.38,1.38,0,0,1-1.79-.69c.94-2.13.65-4.29.27-6.43a2.29,2.29,0,0,0-1.54-2.09,2.5,2.5,0,0,0-2.59,1,7.25,7.25,0,0,0-1.1,1.66,19,19,0,0,0-1.77,10.13,7.79,7.79,0,0,0,.91,2.77,3.09,3.09,0,0,0,4.17,1.37,8.52,8.52,0,0,0,4.38-4.21A8.58,8.58,0,0,1,253.38,316.62Z"/><path class="cls-1" d="M292.27,292.55a1.81,1.81,0,0,1,2.3-.44,1.48,1.48,0,0,1,.92,1.9,34.45,34.45,0,0,0-1,10.21c0,4.45.08,8.91.23,13.36a27,27,0,0,0,.73,4.33c.16.82,0,1.37-.7,1.64a1.07,1.07,0,0,1-1.51-.74,15.83,15.83,0,0,1-.79-3.77c-.14-2.1-.07-4.21-.06-6.31,0-5.61.08-11.22.09-16.83C292.48,294.81,292.35,293.73,292.27,292.55Z"/><path class="cls-1" d="M131.4,302.87a208.78,208.78,0,0,1,21-.33c3.81-.57,11.23-2.63,14-2.75s8-.26,7.44,1.77c0,.1.14.36.49,1.18s1.3,0,1.42,2.84.72,2.31-.67,3.12-2.25-.24-2,1.49,3.29-.13,3,1.14A39.84,39.84,0,0,0,176,318c.12.57,2.08-.44,2,.83s-.61,3.06-.37,3.33,4.63,0,5,.44a2.35,2.35,0,0,1,0,2.57c-.35.23-21,1.27-30.35,1.62s-27.57,1.46-28.27,0a2.16,2.16,0,0,1,.84-2.64c.72-.49,2.26-.51,1.71-.95-1.27-1-1-1.14-.82-2.18a2.82,2.82,0,0,1,1.39-2.19c1.15-.92,1.5-2,.69-2h-.81s-.46-1.85,0-2.08,1.5.39,1.5-.55.52-2.31-.29-2.21-1.49-.29-1.51-1.67,2.27-.65,2.73-.65.92.57,1-1.45c.09-1.55-2.31.58-2.54-1.64s1.63-1.41,2.07-1.29c1.94.5,1.28,0,1.28,0S130.49,302.84,131.4,302.87Z"/><path class="cls-2" d="M148.7,314.72h-2c-.4-1-.85-2.08-1.39-3.28-3-6.72-4.15-7.21-5.18-7.12a1.52,1.52,0,0,0-1.26.91,37.41,37.41,0,0,0-2.74,5.27c-1,2.51-3.58,12.22-3.69,12.63a1.2,1.2,0,0,0,.86,1.47,1.06,1.06,0,0,0,.31,0,1.2,1.2,0,0,0,1.16-.9c0-.06.88-3.31,1.8-6.53h8.53a30.23,30.23,0,0,1,1.86,6.06,1.21,1.21,0,0,0,1.31,1.09,1.19,1.19,0,0,0,1.09-1.31,26.27,26.27,0,0,0-1.69-5.84h1a1.25,1.25,0,0,0,0-2.5Zm-11.43,0c.43-1.44.82-2.67,1.09-3.32a32,32,0,0,1,2.07-4.12,33,33,0,0,1,2.66,5.14c.36.82.68,1.58,1,2.3Z"/><circle class="cls-2" cx="153.4" cy="322.15" r="1.63"/><path class="cls-2" d="M168.29,312.16s-.67.1-2.91.34a37.94,37.94,0,0,1-4.64.06c0-1.17,0-2.08,0-2.44,0-.71,0-1.48.07-2.1,2-.11,5.3-.19,7.7-.21a1.25,1.25,0,0,0,0-2.5h0c-1.09,0-5.63.06-8.28.25a1.17,1.17,0,0,0-.46-.13,1.23,1.23,0,0,0-.84.25l-.4.07a1.25,1.25,0,0,0-.92,1.51,1.22,1.22,0,0,0,.72.85c0,.61-.06,1.32-.06,2,0,.42,0,1.54,0,3a1.14,1.14,0,0,0,0,1.34c.05,3.8.11,8.68.11,9a1.25,1.25,0,0,0,1.25,1.23h0a1.24,1.24,0,0,0,1.23-1.26c0-.07-.05-4.55-.1-8.32.61,0,1.33,0,2.08,0a27.41,27.41,0,0,0,2.8-.12c2.37-.25,3-.35,3-.35a1.25,1.25,0,0,0-.37-2.47Z"/><path class="cls-1" d="M123.94,327c-.39-.86-.31-2.68.84-2.65,1.41.05,2.26-.5,1.71-.95"/></svg>