<svg xmlns="http://www.w3.org/2000/svg" width="1247.3" height="623.7" viewBox="0 0 1247.3 623.7"><defs><style>.cls-1{isolation:isolate;}.cls-2{fill:#67a5b5;mix-blend-mode:screen;}.cls-3{fill:#f69885;}.cls-4{fill:#f47c68;}.cls-5{fill:#eb6855;}.cls-6{fill:#fff3e7;}.cls-7{fill:#995e4c;}.cls-8{fill:#7e4435;}.cls-9{fill:#8b5446;}.cls-10{fill:#fff;}.cls-11{fill:#f9b733;}.cls-12{fill:#e65d5b;}.cls-13{fill:#ce4144;}.cls-14{fill:#a6503d;}.cls-15{fill:#723d37;}.cls-16{fill:#e18a74;}.cls-17{fill:#f7997d;}.cls-18{fill:#aa5d49;}.cls-19{fill:#f28c27;}.cls-20{fill:#4f4671;}.cls-21{fill:#342a4e;}.cls-22{fill:#231f20;}</style></defs><g class="cls-1"><g id="Layer_2" data-name="Layer 2"><g id="Capa_1" data-name="Capa 1"><rect class="cls-2" width="1247.3" height="623.67"/><path class="cls-3" d="M161.4,619.5l13.7-113.7s-11.9-19.2-19.7-35.5a97.2,97.2,0,0,1-5.8-15c-3.2-13.4-2.3-33.7-2-39.7.1-1.1.1-1.7.1-1.7l71.2,8.9-2.2,60.9-.5,12.7,5.3,123.1Z"/><path class="cls-4" d="M218.9,422.8l-2.2,60.9c-.1.2-.1.3-.2.4a24.3,24.3,0,0,1-32.8,10c-11-5.8-20.4-14.3-28.3-23.8a97.2,97.2,0,0,1-5.8-15c-3.2-13.4-2.3-33.7-2-39.7.1-1.1.1-1.7.1-1.7Z"/><path class="cls-5" d="M210,454.7H155.8a1.1,1.1,0,0,1,0-2.2H210a1.1,1.1,0,0,1,0,2.2Z"/><path class="cls-6" d="M73.1,448h207V176.9L73.5,176S76.7,448,73.1,448Z"/><path class="cls-3" d="M177.3,500.5a12.3,12.3,0,0,0,18.8-2.9c3.4-5.7,2.9-11.9-.8-19.8-6.4-13.8-15.8-17.7-15.8-17.7s8.8-16,5.1-26.4-8.5-6.4-9.5-3.1c-1.4,4.9-9.2,22.1-10.7,30.3C161.5,477.4,165.5,489.9,177.3,500.5Z"/><path class="cls-5" d="M178.2,467H178a1,1,0,0,1-.8-1.3c.7-2.8,1.7-5.5,2.6-8.1s1.8-5.1,2.5-7.8a49.8,49.8,0,0,0,1.7-12.6,12.3,12.3,0,0,0-4.9-9.1,1,1,0,0,1-.2-1.5,1.1,1.1,0,0,1,1.5-.3,13.8,13.8,0,0,1,5.7,10.8,45.4,45.4,0,0,1-1.7,13.2c-.7,2.8-1.7,5.5-2.6,8.1a81.4,81.4,0,0,0-2.5,7.9A1.2,1.2,0,0,1,178.2,467Z"/><path class="cls-5" d="M192.4,502.8a1,1,0,0,1-.9-.4,1,1,0,0,1,.2-1.5,14.4,14.4,0,0,0,5.3-9.7,25.8,25.8,0,0,0-1.6-11.5,33.6,33.6,0,0,0-6.1-10.9,20,20,0,0,0-9.9-6.1,1,1,0,0,1-.8-1.3,1.2,1.2,0,0,1,1.4-.8,21.2,21.2,0,0,1,10.9,6.8,33.5,33.5,0,0,1,6.6,11.6,27,27,0,0,1,1.6,12.5,15.9,15.9,0,0,1-6.1,11.1A.7.7,0,0,1,192.4,502.8Z"/><path class="cls-5" d="M197.3,509.3a13.9,13.9,0,0,1-5.7-1.2,1.1,1.1,0,0,1-.5-1.5,1,1,0,0,1,1.4-.5,11.8,11.8,0,0,0,9.4,0,1,1,0,0,1,1.4.6,1,1,0,0,1-.5,1.4A13,13,0,0,1,197.3,509.3Z"/><path class="cls-5" d="M198.6,514.1a8.6,8.6,0,0,1-4.1-1,1,1,0,0,1-.5-1.4,1.1,1.1,0,0,1,1.5-.5,7.2,7.2,0,0,0,4.8.5,1.1,1.1,0,0,1,1.3.8,1.1,1.1,0,0,1-.8,1.3A8.3,8.3,0,0,1,198.6,514.1Z"/><path class="cls-7" d="M719.4,618.2c-1.1-88.6-2.9-176.4-2.9-176.4l-38-7.5-45,183.9Z"/><path class="cls-8" d="M659.7,608.8a1.1,1.1,0,0,1-.7-.3,17.5,17.5,0,0,0-13.8-3.3,1.3,1.3,0,0,1-1.5-1,1.2,1.2,0,0,1,1-1.4,19.5,19.5,0,0,1,15.8,3.8,1.2,1.2,0,0,1,.2,1.7A1.2,1.2,0,0,1,659.7,608.8Z"/><path class="cls-7" d="M674.7,432.2a21.9,21.9,0,0,0,2.8,9.6c7.3,12.8,26.3,17.7,37,9,18-14.6,21.5-39.1,21.5-39.1-.9-12.6-11.3-18.4-24.4-24.8l-1-.5C697.1,379.9,673.4,411.5,674.7,432.2Z"/><path class="cls-9" d="M674.7,431.8a22.3,22.3,0,0,0,2.8,9.6h33.6a5.8,5.8,0,0,0,5.7-5.4l.9-18,10.7-10.5-8.8-6.7-8-14.3-1-.5C697.1,379.5,673.4,411.1,674.7,431.8Z"/><path class="cls-7" d="M469.4,618.2l-45-183.9-38,7.5s-1.8,87.8-2.9,176.4Z"/><path class="cls-8" d="M435.7,607.6a1.4,1.4,0,0,1-1.1-.6,1.3,1.3,0,0,1,.4-1.7,18.2,18.2,0,0,1,18.2-1.2,1.2,1.2,0,0,1,.5,1.6,1.2,1.2,0,0,1-1.6.6,15.8,15.8,0,0,0-15.7,1.1Z"/><path class="cls-7" d="M428.2,432.2a22,22,0,0,1-2.9,9.6c-7.2,12.8-26.2,17.7-36.9,9-18-14.6-21.5-39.1-21.5-39.1.8-12.6,11.3-18.4,24.4-24.8l.9-.5C405.8,379.9,429.5,411.5,428.2,432.2Z"/><path class="cls-9" d="M428.2,431.8a22.4,22.4,0,0,1-2.9,9.6H391.8a5.6,5.6,0,0,1-5.7-5.4l-.9-18-10.8-10.5,8.9-6.7,8-14.3.9-.5C405.8,379.5,429.5,411.1,428.2,431.8Z"/><rect class="cls-10" x="391.9" y="248.8" width="318.2" height="186.02"/><path class="cls-7" d="M404.9,399.5s4.9.9,6-3.1c2.8-10.1-10.1-19-18.8-22.4v-7.3s11.5,10.8,13.9,5.3-4.6-13.1-11.5-17.6-11.6-1.7-12.8,1.4-1.7,8.6,5.2,18.6c-3.6,1.4-6.4,3.6-5.7,11.4-5.5,1.2-18.6,11-13.8,28.1h.2a22.7,22.7,0,0,1,22.9,2.7c2.2,1.7,4.3,3,5.5,3.2,3.5.6,7.1-.7,6.7-6.3C407.6,411.3,409.4,405.9,404.9,399.5Z"/><path class="cls-8" d="M396.9,421.7a7.1,7.1,0,0,1-2.1-.3,17.8,17.8,0,0,1-7.1-3.9,1.2,1.2,0,1,1,1.7-1.7,15.9,15.9,0,0,0,6,3.2c1.6.4,3.9.1,4.6-1.1a5.6,5.6,0,0,0,.6-5c-1.5-4.8-8.4-9.8-20.3-15.1l-1.1-.5a1.2,1.2,0,0,1-.6-1.6,1.3,1.3,0,0,1,1.7-.6l1,.5c4.7,2,19,8.3,21.7,16.5a8.9,8.9,0,0,1-.9,7.1A5.9,5.9,0,0,1,396.9,421.7Z"/><path class="cls-8" d="M386.8,375a1.5,1.5,0,0,1-.9-.4c-3.1-3.3-5.1-6-6.4-10.4s-.2-10.5,4.5-12.8,8.3-.3,10.6.8c6.9,3.4,13.6,10.4,12.9,18.2a4.5,4.5,0,0,1-3.6,4,6.7,6.7,0,0,1-4.9-.7,16.1,16.1,0,0,1-3.6-2.7l-6.4-5.7a1.2,1.2,0,0,1-.1-1.7,1.3,1.3,0,0,1,1.8-.1l6.3,5.7a22.6,22.6,0,0,0,3.1,2.3,4.9,4.9,0,0,0,3.2.6,2.5,2.5,0,0,0,1.8-1.9c.5-6.7-5.4-12.8-11.6-15.8-1.9-.9-5.5-2.3-8.4-.8s-4.3,6.3-3.3,9.9,3,6.3,5.9,9.4a1.2,1.2,0,0,1-.1,1.7A.9.9,0,0,1,386.8,375Z"/><path class="cls-8" d="M402.7,414.6a1.4,1.4,0,0,1-1-.5,1.3,1.3,0,0,1,.3-1.7c2.3-1.6,2.9-2.3,3.5-4.7a10.2,10.2,0,0,0-1.2-7.3,21.4,21.4,0,0,0-5.5-5.9,37.9,37.9,0,0,0-13.9-6.6,1.2,1.2,0,0,1-1-1.4,1.3,1.3,0,0,1,1.5-1,39.5,39.5,0,0,1,14.9,7.1,21.9,21.9,0,0,1,6.1,6.6,12.5,12.5,0,0,1,1.5,9.1c-.8,3.1-1.8,4.2-4.5,6.1Z"/><path class="cls-8" d="M406.7,402.1a1.4,1.4,0,0,1-1.2-.9,1.3,1.3,0,0,1,.9-1.5c2-.5,2.6-1.8,2.6-5.3s-1.1-5-3.2-7.9a33.3,33.3,0,0,0-15.1-11.3,1.1,1.1,0,0,1-.7-1.6,1.1,1.1,0,0,1,1.5-.7,35.3,35.3,0,0,1,16.3,12.2q3.6,4.9,3.6,9.3c0,2.3.1,6.6-4.4,7.7Z"/><path class="cls-7" d="M698,399.5s-4.9.9-6-3.1c-2.8-10.1,10-19,18.7-22.4v-7.3s-11.4,10.8-13.8,5.3,4.5-13.1,11.4-17.6,11.7-1.7,12.9,1.4,1.7,8.6-5.2,18.6c3.6,1.4,6.4,3.6,5.7,11.4,5.5,1.2,18.6,11,13.8,28.1h-.2a23,23,0,0,0-23,2.7c-2.1,1.7-4.2,3-5.4,3.2-3.5.6-7.1-.7-6.8-6.3C695.3,411.3,693.5,405.9,698,399.5Z"/><path class="cls-8" d="M706,421.7a5.9,5.9,0,0,1-5.2-2.5,8.2,8.2,0,0,1-.9-7.1c2.7-8.2,17-14.5,21.7-16.5l1-.5a1.3,1.3,0,0,1,1.7.6,1.2,1.2,0,0,1-.6,1.6l-1.1.5c-12,5.3-18.8,10.3-20.3,15.1a5.6,5.6,0,0,0,.6,5c.7,1.2,2.9,1.5,4.6,1.1a15.9,15.9,0,0,0,6-3.2,1.2,1.2,0,1,1,1.7,1.7,17.8,17.8,0,0,1-7.1,3.9A7.6,7.6,0,0,1,706,421.7Z"/><path class="cls-8" d="M716.1,375a.9.9,0,0,1-.8-.4,1.2,1.2,0,0,1-.1-1.7c2.9-3.1,4.7-5.5,5.8-9.4s.2-8.2-3.2-9.9-6.5-.1-8.4.8c-6.2,3-12.1,9.1-11.6,15.8a2.5,2.5,0,0,0,1.8,1.9,4.6,4.6,0,0,0,3.1-.6,18.6,18.6,0,0,0,3.2-2.3l6.3-5.7a1.2,1.2,0,0,1,1.6,1.8l-6.3,5.7a16.1,16.1,0,0,1-3.6,2.7,6.9,6.9,0,0,1-5,.7,4.8,4.8,0,0,1-3.6-4c-.6-7.8,6.1-14.8,13-18.2,2.3-1.1,6.7-2.7,10.6-.8s5.8,8.2,4.5,12.8-3.3,7.1-6.4,10.4A1.8,1.8,0,0,1,716.1,375Z"/><path class="cls-8" d="M700.1,414.6l-.7-.2c-2.6-1.9-3.6-3-4.4-6.1a12,12,0,0,1,1.5-9.1,21.9,21.9,0,0,1,6.1-6.6,39.5,39.5,0,0,1,14.9-7.1,1.2,1.2,0,0,1,1.4,1,1.1,1.1,0,0,1-.9,1.4,37.9,37.9,0,0,0-13.9,6.6,18.7,18.7,0,0,0-5.5,5.9,9.7,9.7,0,0,0-1.2,7.3c.6,2.4,1.2,3.1,3.5,4.7a1.4,1.4,0,0,1,.3,1.7A1.6,1.6,0,0,1,700.1,414.6Z"/><path class="cls-8" d="M696.4,401.2h-.3c-4-.8-6.2-5.3-5.9-8.9s1.8-6.2,4.7-9.4a38.3,38.3,0,0,1,16.6-10.5,1.3,1.3,0,1,1,.8,2.4,34.6,34.6,0,0,0-15.6,9.8c-2.5,2.8-3.9,5.4-4.1,7.9s1.4,5.7,4,6.3a1.2,1.2,0,0,1,1,1.4A1.3,1.3,0,0,1,696.4,401.2Z"/><path class="cls-11" d="M380.5,461.6c1.8-.6,50.3-13.2,50.3-13.2l1.2,4.8s-50.3,17.4-50.3,15.6A58.1,58.1,0,0,0,380.5,461.6Z"/><path class="cls-11" d="M380.5,473.5l52.4-17.2,1.2,4.8s-52.4,21.4-52.4,19.6A58.1,58.1,0,0,0,380.5,473.5Z"/><path class="cls-12" d="M809.4,368.7s-1.5,11.7,10.2,26,24,30.6,19.9,50-4.1,35.7,7.7,48.4,13.2,31.1,5.1,58.1,19.3,36.7,16.3,68.3H708s-3.1-15.3,4.1-42.3,16.8-36.2,9.7-54.5-2.1-40.8,6.1-55.1,15.8-24.5,12.7-42.3-1.4-32.5,14.4-48.1S809.4,368.7,809.4,368.7Z"/><path class="cls-4" d="M787.2,358.9H762.9s-16.4-10.9-13.5-28.5,13.5-35,28-34.7,33.6,14.1,34.3,28.1S806.1,358.6,787.2,358.9Z"/><path class="cls-13" d="M757.7,357.3,807,355a3.2,3.2,0,0,1,3.4,3.3l-.3,16.8-55.2,2.1-.3-16.7A3.1,3.1,0,0,1,757.7,357.3Z"/><polygon class="cls-14" points="762.5 479.3 780.2 479.3 780.6 232.5 780.9 30.7 780.9 18.2 763.3 18.2 763.3 30.7 762.9 232.2 762.5 479.3"/><polygon class="cls-15" points="762.9 222.5 763.3 30.7 780.9 30.7 780.6 222.5 762.9 222.5"/><path class="cls-3" d="M781.3,291.5c.4-3.7-7.2-5.5-12.7-6.1s-22.8-5.7-27.4-1.1-3.9,12,.6,14.1c-3.9,6.3-3.7,12.4,2.2,13.8-2.4,5.1-2.2,14.7,4.7,15.1-2.4,8.8,1.8,12.9,6.9,13.6,10,1.5,21-1.6,23.8-4.6s1.1-8.8-4.8-10c0,0,6.1-.2,6.1-6.5,0-4.3-5.5-5.9-5.5-5.9s6.1-2.1,5.1-9.6C783.1,299.6,781.3,291.5,781.3,291.5Z"/><path class="cls-3" d="M799.9,350.7a16.4,16.4,0,0,0,4-2.9c6.8-6.5,8.5-18.2,7.7-27.1-1.8-19.3-12.5-24.4-17.4-26.9s-28.7-5.2-32.4-2.4-2.4,10,3.7,13.4,16.5,1.5,21,4.6,5.8,6.1,5.8,6.1-7.3,3.4-9.1,8.8c-3,8.9-4.2,25.9,8.4,27.8A14.1,14.1,0,0,0,799.9,350.7Z"/><polygon class="cls-6" points="909.1 44.6 583.6 44.6 580.9 212.5 909.7 212.5 909.1 44.6"/><path class="cls-5" d="M757.2,328.8c-2.6,0-5.2,0-7.7-.2a1.1,1.1,0,0,1,.2-2.2,107,107,0,0,0,24.7-1.1,1,1,0,0,1,1.2.9,1.1,1.1,0,0,1-.9,1.3A110.9,110.9,0,0,1,757.2,328.8Z"/><path class="cls-5" d="M766.9,314.8a161.8,161.8,0,0,1-20.9-1.4,1,1,0,0,1-.9-1.2,1.1,1.1,0,0,1,1.2-1,144.5,144.5,0,0,0,27.9,1.2,1.1,1.1,0,0,1,1.1,1.1,1,1,0,0,1-1,1.1C771.8,314.8,769.3,314.8,766.9,314.8Z"/><path class="cls-5" d="M794.2,321a1.2,1.2,0,0,1-1.1-.7,15.6,15.6,0,0,0-8.6-9.7,28.1,28.1,0,0,0-8.3-2.1h-.6a40.8,40.8,0,0,1-8.4-1.9,14,14,0,0,1-7.5-6c-1.7-3.2-1.5-7.2.6-9.7a1.1,1.1,0,0,1,1.5-.1,1,1,0,0,1,.2,1.5,6.7,6.7,0,0,0-.4,7.2,11.9,11.9,0,0,0,6.3,5,37,37,0,0,0,8,1.8h.6a33.3,33.3,0,0,1,8.9,2.3,18.4,18.4,0,0,1,9.8,11,1.1,1.1,0,0,1-.7,1.4Z"/><path class="cls-5" d="M760.7,301.2h-.1l-15.7-1.8a1.1,1.1,0,0,1-1-1.2,1,1,0,0,1,1.2-.9l15.8,1.7a1.1,1.1,0,0,1-.2,2.2Z"/><path class="cls-13" d="M739.3,507.8a1.3,1.3,0,0,1-1-.4,14.7,14.7,0,0,1-2.6-13.7,1.3,1.3,0,0,1,1.6-.8,1.2,1.2,0,0,1,.8,1.5,12,12,0,0,0,2.1,11.4,1.3,1.3,0,0,1-.1,1.8Z"/><path class="cls-13" d="M745,505.5a1.1,1.1,0,0,1-.8-.3,9.3,9.3,0,0,1-2.6-9.6,1.2,1.2,0,0,1,1.5-.8,1.2,1.2,0,0,1,.8,1.6,7.2,7.2,0,0,0,1.9,7,1.2,1.2,0,0,1,.1,1.7A1.1,1.1,0,0,1,745,505.5Z"/><path class="cls-13" d="M814.7,428.5h-.1a1.2,1.2,0,0,1-1.1-1.3,16.7,16.7,0,0,0-3.6-12.2,1.2,1.2,0,0,1,.2-1.7,1.2,1.2,0,0,1,1.7.1,19.2,19.2,0,0,1,4.2,14A1.3,1.3,0,0,1,814.7,428.5Z"/><path class="cls-13" d="M821.5,424.6h0a1.2,1.2,0,0,1-1.2-1.2,12.5,12.5,0,0,0-2.2-7.5,1.2,1.2,0,1,1,2-1.4,15.1,15.1,0,0,1,2.7,9A1.3,1.3,0,0,1,821.5,424.6Z"/><path class="cls-13" d="M799.7,546a1.2,1.2,0,0,1-1-.5,1.2,1.2,0,0,1,.4-1.7,13.2,13.2,0,0,0,5.6-13.7,1.3,1.3,0,0,1,2.5-.5,15.9,15.9,0,0,1-6.8,16.3Z"/><path class="cls-13" d="M806.5,547.6a1.2,1.2,0,0,1-1-.7,1.1,1.1,0,0,1,.4-1.6c3.4-1.9,5.2-7.2,4.6-10.9a1.2,1.2,0,0,1,1-1.4,1.2,1.2,0,0,1,1.4,1.1c.7,4.5-1.3,10.9-5.8,13.3Z"/><path class="cls-13" d="M744.1,589.1a1.4,1.4,0,0,1-1-.5,21.8,21.8,0,0,1-4-16.4,1.2,1.2,0,0,1,1.4-1,1.2,1.2,0,0,1,1,1.4,19.7,19.7,0,0,0,3.6,14.5,1.3,1.3,0,0,1-.3,1.8Z"/><path class="cls-13" d="M748.8,585.3a1.2,1.2,0,0,1-.9-.4c-2.2-2.4-3.6-7.3-2.2-10.2a1.2,1.2,0,0,1,2.2,1c-.8,1.8.1,5.7,1.8,7.6a1.2,1.2,0,0,1,0,1.7A1.6,1.6,0,0,1,748.8,585.3Z"/><path class="cls-13" d="M826.8,592a1.1,1.1,0,0,1-.8-.3,1.4,1.4,0,0,1-.1-1.8,11.9,11.9,0,0,0,2.6-11.8,1.3,1.3,0,0,1,2.4-.8,14.6,14.6,0,0,1-3.2,14.3A1,1,0,0,1,826.8,592Z"/><path class="cls-13" d="M834.6,590.6a1.3,1.3,0,0,1-.8-.3,1.2,1.2,0,0,1-.2-1.7,10.4,10.4,0,0,0,2.1-9.1,1.3,1.3,0,0,1,.9-1.5,1.1,1.1,0,0,1,1.5.9,13.2,13.2,0,0,1-2.5,11.2A1.4,1.4,0,0,1,834.6,590.6Z"/><path class="cls-13" d="M751.4,409.6a1.4,1.4,0,0,1-1.1-.6,14.8,14.8,0,0,1-.5-13.7,1.2,1.2,0,0,1,1.6-.6,1.2,1.2,0,0,1,.6,1.7,12.4,12.4,0,0,0,.5,11.4,1.3,1.3,0,0,1-.5,1.7Z"/><path class="cls-16" d="M972,455.2s14.8-15.9,29.8-20.5,24.9-1.5,28.8-3,7-2.9,9.2-.2-.5,11.7-9.2,13.5S972,455.2,972,455.2Z"/><path class="cls-16" d="M1085.1,380.3c0,.3-8.3-25.9-27-37.2s-28.8-3.6-36.1-1.8-15.6-3.9-19.3-1.3-1.1,11.8,10.4,15.7S1083.6,373.1,1085.1,380.3Z"/><polygon class="cls-14" points="1008.1 565.1 1030.8 565.1 1031.4 318.3 1031.8 116.5 1031.8 104 1009.1 104 1009.1 116.5 1008.7 318 1008.1 565.1"/><polygon class="cls-15" points="1008.7 308.3 1009.1 116.5 1031.8 116.5 1031.4 308.3 1008.7 308.3"/><polygon class="cls-10" points="1141.3 127.5 889.2 127.5 887.2 295.3 1141.8 295.3 1141.3 127.5"/><path class="cls-17" d="M821.9,619.4S961.1,451.8,989.8,442.5c17.4-6.6,50.2-4.9,53.9,1.5,1.3,2.4,0,10.1-5.5,10.9,0,0,4.4,4,3.7,8.1s-4.6,5.9-4.6,5.9a8.7,8.7,0,0,1,2.6,5.2c1.1,5.5-3.2,7.3-3.2,7.3s6.9,1.3,6.5,10.9c-.3,5.7-4.1,8-12.2,8v-5.4s-24.9,4.7-36.4.2c-13.8,21-72.7,124.7-72.7,124.7Z"/><path class="cls-18" d="M1039.2,456.2a1.2,1.2,0,0,1-1.2-1,1.2,1.2,0,0,1,1-1.4,4.7,4.7,0,0,0,3.6-3.2,6.4,6.4,0,0,0-.9-5.9c-2.1-2.6-8.6-3.7-12.4-4.3h-.6c-16.1-2.6-29.1-2.3-43.9,6.9a1.2,1.2,0,0,1-1.7-.4,1.2,1.2,0,0,1,.4-1.7c15.5-9.6,28.9-9.9,45.6-7.3h.6c4.4.7,11.2,1.8,14,5.2a8.8,8.8,0,0,1,1.2,8.2,7.3,7.3,0,0,1-5.4,4.8Z"/><path class="cls-18" d="M1010.5,497.5a104.1,104.1,0,0,1-18.4-1.7,1.2,1.2,0,0,1-.9-1.4,1.2,1.2,0,0,1,1.4-1,99.9,99.9,0,0,0,42.5-1.5,1.3,1.3,0,0,1,1.5.9,1.1,1.1,0,0,1-.9,1.5A101.8,101.8,0,0,1,1010.5,497.5Z"/><path class="cls-18" d="M1035.2,470.7a1.4,1.4,0,0,1-1.2-1,1.2,1.2,0,0,1,1-1.4,7.2,7.2,0,0,0,5.4-5.2,7.3,7.3,0,0,0-2.3-7.1,1.2,1.2,0,1,1,1.5-1.9,9.5,9.5,0,0,1-4.1,16.6Z"/><path class="cls-18" d="M1035.6,483.6a1.2,1.2,0,0,1-1.1-.7,1.2,1.2,0,0,1,.6-1.6,6.1,6.1,0,0,0,3.6-5,6.4,6.4,0,0,0-2.4-5.6,1.2,1.2,0,0,1-.3-1.7,1.4,1.4,0,0,1,1.8-.2,8.6,8.6,0,0,1,3.3,7.8,8.4,8.4,0,0,1-5,6.9Z"/><path class="cls-11" d="M952.4,569.5,940.6,589l-18.7,30.8H815.3a776.4,776.4,0,0,1,64.4-75.2c5.9-6,12.1-12.1,18.4-18.1C902.5,529.7,952.4,569.5,952.4,569.5Z"/><path class="cls-19" d="M952.4,569.5,940.6,589l-60.9-44.5c5.9-6,12.1-12.1,18.4-18.1C902.5,529.7,952.4,569.5,952.4,569.5Z"/><path class="cls-17" d="M1049.8,350.6s-35.8-1.4-39.3-1c-5.4.6-10.3,7.5-4.6,14.5-4.7,2-7.2,12.5.4,16.3-5.3,2.6-4.4,12.6.4,13.9-8.3,2.4-7.9,9.8-5.4,13.6a14.4,14.4,0,0,0,7.2,5.3l.2-7.6,9.8.2s35.6,19.6,58.4.7C1095.5,391.1,1079.7,351,1049.8,350.6Z"/><path class="cls-18" d="M1007.2,365a1.3,1.3,0,0,1-.8-.3,10,10,0,0,1-3.2-9.4,9.9,9.9,0,0,1,6.9-7.1,1.4,1.4,0,0,1,1.5.9,1.2,1.2,0,0,1-.9,1.5,7.4,7.4,0,0,0-5.1,5.3,7.3,7.3,0,0,0,2.4,6.9,1.2,1.2,0,0,1,.2,1.7A1.4,1.4,0,0,1,1007.2,365Z"/><path class="cls-18" d="M1008,382h-.3a10.1,10.1,0,0,1-7.5-8.7,10,10,0,0,1,5.6-10.1,1.2,1.2,0,0,1,1.6.5,1.2,1.2,0,0,1-.6,1.7,8,8,0,0,0-4.2,7.6,7.9,7.9,0,0,0,5.7,6.7,1.1,1.1,0,0,1,.9,1.5A1.2,1.2,0,0,1,1008,382Z"/><path class="cls-17" d="M1009.1,396.1h-.4a9.8,9.8,0,0,1-7.1-8.9,9.1,9.1,0,0,1,2.6-6.4,4.8,4.8,0,0,1,4-1.2,1.2,1.2,0,0,1,1,1.4,1.2,1.2,0,0,1-1.4,1.1,2.5,2.5,0,0,0-2,.6,6.5,6.5,0,0,0-1.7,4.5,7.5,7.5,0,0,0,5.3,6.6,1.2,1.2,0,0,1,.9,1.5A1.3,1.3,0,0,1,1009.1,396.1Z"/><path class="cls-17" d="M1089.8,391c-11.8-39.3-40-40.4-40-40.4l-1.4,56.1s.3,64.2,0,78.6-.6,133.7-.6,133.7h92C1126.2,515.5,1101.7,430.3,1089.8,391Z"/><path class="cls-11" d="M1141.8,619.3h-98.7l1.9-77.4.7-28.6,72.8-21.1s2.7,11.6,6.3,28.2C1130.9,549.3,1139.8,593.4,1141.8,619.3Z"/><path class="cls-19" d="M1124.8,520.4,1045,541.9l.7-28.6,72.8-21.1S1121.2,503.8,1124.8,520.4Z"/><path class="cls-18" d="M1047.5,416.1a50.5,50.5,0,0,1-29.3-9.3h-10.3a1.3,1.3,0,0,1-1.2-1.3,1.2,1.2,0,0,1,1.2-1.2h11.2l.3.2a47.8,47.8,0,0,0,40,7.7,1.2,1.2,0,0,1,1.5.9,1.4,1.4,0,0,1-.9,1.5A52.8,52.8,0,0,1,1047.5,416.1Z"/><path class="cls-4" d="M298.3,358.9h24.3S339,348,336.1,330.4s-13.5-35-28-34.7-33.6,14.1-34.3,28.1S279.4,358.6,298.3,358.9Z"/><path class="cls-20" d="M329.7,376.3l.4-20.9-57.9-1.5.5,22.2s-11.7,1.4-13.9,15.7-20,202-21.5,225.7H356.2S343.9,390.8,329.7,376.3Z"/><path class="cls-21" d="M277.4,376.3a1.2,1.2,0,0,1-1.1-1.1l-.9-19.7a1,1,0,0,1,1-1.1,1.1,1.1,0,0,1,1.2,1l.9,19.7a1.1,1.1,0,0,1-1,1.2Z"/><path class="cls-21" d="M282.3,375.9a1,1,0,0,1-1.1-1l-.5-19.7a1,1,0,0,1,1-1.2,1.3,1.3,0,0,1,1.2,1.1l.5,19.7a1.1,1.1,0,0,1-1.1,1.1Z"/><path class="cls-21" d="M288.2,376.2a1,1,0,0,1-1.1-1V356.1a1.1,1.1,0,1,1,2.2,0v19.1A1,1,0,0,1,288.2,376.2Z"/><path class="cls-21" d="M294.6,376.9h0a1.1,1.1,0,0,1-1.1-1.1l.3-19.1a1.2,1.2,0,0,1,1.1-1.1,1.1,1.1,0,0,1,1.1,1.1l-.3,19.1A1.1,1.1,0,0,1,294.6,376.9Z"/><path class="cls-21" d="M300.2,376.2h-.1a1.1,1.1,0,0,1-1-1.2l1.5-18.1a1.1,1.1,0,0,1,1.2-1,1.1,1.1,0,0,1,1,1.2l-1.5,18.1A1,1,0,0,1,300.2,376.2Z"/><path class="cls-21" d="M308.3,376.6h-.1a1.1,1.1,0,0,1-1-1.2L309,356a1.2,1.2,0,0,1,1.2-1,1.1,1.1,0,0,1,1,1.2l-1.8,19.4A1.3,1.3,0,0,1,308.3,376.6Z"/><path class="cls-21" d="M317.5,375.9h-.1a1,1,0,0,1-1-1.1l.2-17.2a1.1,1.1,0,0,1,1.1-1.1h0a1.1,1.1,0,0,1,1.1,1.1l-.2,17.3A1.1,1.1,0,0,1,317.5,375.9Z"/><path class="cls-21" d="M324.2,375.9h0a1.1,1.1,0,0,1-1.1-1.1l.3-15.9a1.2,1.2,0,0,1,1.2-1.1,1,1,0,0,1,1,1.1l-.3,16A1,1,0,0,1,324.2,375.9Z"/><path class="cls-21" d="M329.5,376.9h-56a1,1,0,0,1-1.1-1.1,1,1,0,0,1,1.1-1h56a1,1,0,0,1,1.1,1A1,1,0,0,1,329.5,376.9Z"/><polygon class="cls-14" points="323 479.3 305.3 479.3 304.9 232.5 304.6 30.7 304.6 18.2 322.2 18.2 322.2 30.7 322.6 232.2 323 479.3"/><polygon class="cls-15" points="322.6 222.5 322.2 30.7 304.6 30.7 304.9 222.5 322.6 222.5"/><path class="cls-3" d="M304.2,291.5c-.4-3.7,7.1-5.5,12.6-6.1s22.8-5.7,27.5-1.1,3.9,12-.6,14.1c3.9,6.3,3.7,12.4-2.2,13.8,2.4,5.1,2.2,14.7-4.7,15.1,2.4,8.8-1.9,12.9-6.9,13.6-10,1.5-21-1.6-23.9-4.6s-1-8.8,4.9-10c0,0-6.1-.2-6.1-6.5,0-4.3,5.5-5.9,5.5-5.9s-6.1-2.1-5.1-9.6C302.4,299.6,304.2,291.5,304.2,291.5Z"/><path class="cls-3" d="M285.6,350.7a16.4,16.4,0,0,1-4-2.9c-6.8-6.5-8.6-18.2-7.7-27.1,1.8-19.3,12.5-24.4,17.4-26.9s28.7-5.2,32.4-2.4,2.4,10-3.7,13.4-16.5,1.5-21.1,4.6-5.8,6.1-5.8,6.1,7.4,3.4,9.2,8.8c3,8.9,4.2,25.9-8.4,27.8A14.1,14.1,0,0,1,285.6,350.7Z"/><polygon class="cls-10" points="192.7 41.2 431.2 41.2 433.1 209 192.2 209 192.7 41.2"/><path class="cls-21" d="M313.9,533.4a1.1,1.1,0,0,1-.8-.3c-7.7-7.3-15.8-15-21.4-24.6a129.2,129.2,0,0,1-9.5-19.1c-7-17.8-9.9-37-12.1-53.5a1.1,1.1,0,0,1,1-1.2,1,1,0,0,1,1.2.9c2.1,16.4,5,35.4,11.9,53a134.7,134.7,0,0,0,9.3,18.8c5.5,9.4,13.5,16.9,21.1,24.1a1.1,1.1,0,0,1,.1,1.6A1.1,1.1,0,0,1,313.9,533.4Z"/><path class="cls-21" d="M303,528.7a.9.9,0,0,1-.7-.3,104.1,104.1,0,0,1-32.1-43.7,1.2,1.2,0,0,1,.6-1.4,1.3,1.3,0,0,1,1.5.6,101.9,101.9,0,0,0,31.3,42.8,1.1,1.1,0,0,1,.2,1.6A1.2,1.2,0,0,1,303,528.7Z"/><path class="cls-21" d="M263.1,603.7a1.1,1.1,0,0,1-1.1-1,1.1,1.1,0,0,1,1-1.2,108.6,108.6,0,0,0,69.9-31.8,1.1,1.1,0,0,1,1.6-.1,1.2,1.2,0,0,1,0,1.6,111.2,111.2,0,0,1-71.4,32.5Z"/><path class="cls-21" d="M301.7,604.6a1.1,1.1,0,0,1-1-.7,1.1,1.1,0,0,1,.6-1.4,53.6,53.6,0,0,0,23.8-17.1,1.2,1.2,0,0,1,1.6-.1,1.1,1.1,0,0,1,.2,1.5,57.3,57.3,0,0,1-24.8,17.8Z"/><path class="cls-5" d="M328.3,328.8a110,110,0,0,1-17.5-1.3,1.1,1.1,0,0,1-.9-1.3,1,1,0,0,1,1.2-.9,107,107,0,0,0,24.7,1.1,1.2,1.2,0,0,1,1.2,1,1.3,1.3,0,0,1-1.1,1.2C333.5,328.8,330.9,328.8,328.3,328.8Z"/><path class="cls-5" d="M318.6,314.8c-2.5,0-4.9,0-7.4-.2a1,1,0,0,1-1-1.1,1.1,1.1,0,0,1,1.1-1.1,144.5,144.5,0,0,0,27.9-1.2,1.1,1.1,0,0,1,1.2,1,1,1,0,0,1-.9,1.2A161.8,161.8,0,0,1,318.6,314.8Z"/><path class="cls-5" d="M291.3,321H291a1.1,1.1,0,0,1-.7-1.4,18.5,18.5,0,0,1,9.7-11,35,35,0,0,1,9-2.3h.6a34.9,34.9,0,0,0,7.9-1.8c2.9-1.1,5.2-2.8,6.3-5a6.5,6.5,0,0,0-.3-7.2,1,1,0,0,1,.2-1.5,1.1,1.1,0,0,1,1.5.1c2.1,2.5,2.3,6.5.6,9.7a14.4,14.4,0,0,1-7.5,6,40.8,40.8,0,0,1-8.4,1.9h-.6a28.1,28.1,0,0,0-8.3,2.1,16.1,16.1,0,0,0-8.7,9.7A1,1,0,0,1,291.3,321Z"/><path class="cls-5" d="M324.7,301.2a1,1,0,0,1-1-1,1,1,0,0,1,.9-1.2l15.8-1.7a1,1,0,0,1,1.2.9,1.1,1.1,0,0,1-1,1.2l-15.7,1.8Z"/><path class="cls-22" d="M633,87.4l11-.4-.3,30.9-11.5.4Zm.2-13.5h10.6v9.9L633,83.4Z"/><path class="cls-22" d="M691.1,115.4l-2.5-29.8-6.5,30.6H671.8l-6.7-31.4-1.4,31.7-12.5-.2,1.9-43h20L677,90.2l4.1-16.5,18.5-.3,4.5,41.9Z"/><path class="cls-22" d="M711.8,116.5V74.2l25.4-.5.2,10.2-12,.3v6h12.6v11.1H725.2v5.4l12.5-.4.2,9.6Z"/><path class="cls-22" d="M784.9,73.7l-.5,41.5-17.2.4-11-24.4v24.7H745.6V73.1H759l13,28.8v-28Z"/><path class="cls-22" d="M813.1,70.9A21.4,21.4,0,0,1,829.5,78a20.8,20.8,0,0,1,4.5,7.2,21.7,21.7,0,0,1,1.6,8.2,23.4,23.4,0,0,1-1.2,7.4,21.1,21.1,0,0,1-3.7,6.7l-3.7,3.7a23.1,23.1,0,0,1-6.3,3.1,22.2,22.2,0,0,1-6.7,1,24.6,24.6,0,0,1-7.2-1.1,23.7,23.7,0,0,1-6.6-3.6l-4.1-4.1a21,21,0,0,1-3.5-6.6,21.6,21.6,0,0,1-1.2-7.1,22.4,22.4,0,0,1,3.5-12l6.8-6.9a21.5,21.5,0,0,1,11.4-3Zm-8.2,22.8a8,8,0,0,0,.7,3.4,8.3,8.3,0,0,0,1.9,2.6,9.5,9.5,0,0,0,2.7,1.7,8,8,0,0,0,3,.6,8.5,8.5,0,0,0,4.3-1.2l2.9-2.9a8.5,8.5,0,0,0,1.2-4.3,8.7,8.7,0,0,0-.6-3.2,8.3,8.3,0,0,0-1.9-2.6,6.8,6.8,0,0,0-2.6-1.8,7.5,7.5,0,0,0-3.3-.7,7.1,7.1,0,0,0-3.2.7,6.8,6.8,0,0,0-2.6,1.8,6.4,6.4,0,0,0-1.8,2.7A6.8,6.8,0,0,0,804.9,93.7Z"/><path class="cls-22" d="M861.8,92.1a12.2,12.2,0,0,1,4,2.9,13.1,13.1,0,0,1,2.1,3.6l.7,2.1a7.8,7.8,0,0,1,.3,2.2,20.4,20.4,0,0,1-.5,4.4,19.4,19.4,0,0,1-1.5,3.6,10.3,10.3,0,0,1-2.4,3.1,19.9,19.9,0,0,1-3.3,2.4,25,25,0,0,1-3.8,1.5,14.1,14.1,0,0,1-4,.5,12.3,12.3,0,0,1-2.7-.2l-2.7-.7a13.4,13.4,0,0,1-2.4-.9l-2.1-1.2a14.2,14.2,0,0,1-4.7-5.8l8.3-5.4.5.9a5.7,5.7,0,0,0,1.1,1.1,6.4,6.4,0,0,0,1.6,1.1,4.6,4.6,0,0,0,2.1.4,3.2,3.2,0,0,0,2.5-1.2,3.8,3.8,0,0,0,.9-2.5c0-1.8-1.4-3.2-4.3-4.2a17.9,17.9,0,0,1-4.2-1.9,21.6,21.6,0,0,1-3.3-2.7,12.9,12.9,0,0,1-1.6-1.7,8.3,8.3,0,0,1-1.3-1.8,10.2,10.2,0,0,1-.8-2.3,9.3,9.3,0,0,1-.4-3.1,16.9,16.9,0,0,1,.3-3,12.4,12.4,0,0,1,1-3.1,13.7,13.7,0,0,1,5-5.9,15.6,15.6,0,0,1,9.9-3.1,14.1,14.1,0,0,1,5.7,1.1,14.6,14.6,0,0,1,3.8,2.3l2.3,2.4-7,6.7a1.5,1.5,0,0,0-.7-.7l-1.1-.6-1.3-.5-1.2-.2a4.5,4.5,0,0,0-3,1,3.6,3.6,0,0,0-.9,2.4,4,4,0,0,0,2.1,3.4,3.9,3.9,0,0,0,1.3.6l1.6.8,1.9,1Z"/><path class="cls-22" d="M680.2,174.7l-12.3,1.8-5.8-11.8-1.8.3h-1.8v10.7H645.8V131.9h12.6a15.3,15.3,0,0,1,6.4,1.4,15.8,15.8,0,0,1,5.3,3.5,17.7,17.7,0,0,1,3.6,5.3,17,17,0,0,1,1.3,6.4,15.1,15.1,0,0,1-.9,5.3,18.3,18.3,0,0,1-2.4,4.6Z"/><path class="cls-22" d="M703.5,178.6a22.8,22.8,0,0,1-6.6-1.1,21.4,21.4,0,0,1-6.4-3.6l-4.2-4.1a20.5,20.5,0,0,1-3.3-6.4,23.7,23.7,0,0,1-1-7V133.6h14v22.8a9,9,0,0,0,2,6,6.5,6.5,0,0,0,5.2,2.3,6.7,6.7,0,0,0,5.2-2.2,8.8,8.8,0,0,0,2-6.1V134.8l14.6-.6v22.2a27.2,27.2,0,0,1-.8,6.3,19.1,19.1,0,0,1-2.5,5.9l-6.6,7a23.5,23.5,0,0,1-5.7,2.3A23.2,23.2,0,0,1,703.5,178.6Z"/><path class="cls-22" d="M732.8,133.7h14.4v42.9H732.8Z"/><path class="cls-22" d="M789.9,154.6a22.8,22.8,0,0,1-3.4,12l-6.9,6.8a22.1,22.1,0,0,1-5.5,2.3,23.2,23.2,0,0,1-5.8.8H754.7l1.2-43.8h12.2a21.4,21.4,0,0,1,15.4,6.4,21,21,0,0,1,4.7,7A20.2,20.2,0,0,1,789.9,154.6Zm-21.7,7.9a7.8,7.8,0,0,0,3.1-.6,9,9,0,0,0,2.6-1.7,11,11,0,0,0,1.7-2.5,8.3,8.3,0,0,0,0-6.2,9.2,9.2,0,0,0-1.7-2.5,12,12,0,0,0-2.6-1.8,8.1,8.1,0,0,0-3.1-.6Z"/><path class="cls-22" d="M815.8,130.9a21.8,21.8,0,0,1,9.3,1.9,20.8,20.8,0,0,1,7.1,5.2,22.7,22.7,0,0,1,4.6,7.2,23.9,23.9,0,0,1,1.6,8.2,23.4,23.4,0,0,1-1.2,7.4,21.4,21.4,0,0,1-3.8,6.7l-3.7,3.7a20.6,20.6,0,0,1-6.3,3.1,21.8,21.8,0,0,1-6.7,1,25.7,25.7,0,0,1-7.2-1.1,21.9,21.9,0,0,1-6.5-3.6l-4.2-4.1a23.2,23.2,0,0,1-3.5-6.6,21.6,21.6,0,0,1-1.2-7.1,22.4,22.4,0,0,1,3.5-12l6.9-6.9a22.1,22.1,0,0,1,5.5-2.3A22.5,22.5,0,0,1,815.8,130.9Zm-8.2,22.8a8.9,8.9,0,0,0,2.6,6,9.5,9.5,0,0,0,2.7,1.7,8.1,8.1,0,0,0,3.1.6,7.9,7.9,0,0,0,4.2-1.2l3-2.9a8.5,8.5,0,0,0,1.2-4.3,8.8,8.8,0,0,0-.7-3.2,10,10,0,0,0-1.8-2.6,8,8,0,0,0-2.7-1.8,7.1,7.1,0,0,0-3.2-.7,7.2,7.2,0,0,0-3.3.7,7.6,7.6,0,0,0-2.6,1.8,6.4,6.4,0,0,0-1.8,2.7A8.3,8.3,0,0,0,807.6,153.7Z"/><path class="cls-22" d="M854.5,163l-11,.3.3-30.9,11.5-.3Zm-.2,13.5-10.6-.2v-9.9l10.8.5Z"/><path class="cls-22" d="M309.9,90.9l.7.4.6.5-.4.9a26,26,0,0,0-1.3,2.4l-1.6,2.6-1.9,2.6a23.9,23.9,0,0,1-2.3,2.2,14,14,0,0,1-2.6,1.6,9.3,9.3,0,0,1-2.9.5,7.5,7.5,0,0,1-2.6-.4,7.2,7.2,0,0,1-2.1-1.2,7,7,0,0,1-1.5-1.9,5.6,5.6,0,0,1-.5-2.3,6.8,6.8,0,0,1,.3-1.9,22.5,22.5,0,0,1,.5-2.2,8.9,8.9,0,0,0,.6-2,6.1,6.1,0,0,0,.3-1.7v-.5a1.3,1.3,0,0,0-.1-.6,10.4,10.4,0,0,0-1,1.4l-1.2,1.9-1,2-.6,1.4a15.1,15.1,0,0,0-1.1,2.2l-.9,2.2-.9,2.2-.9,2.1h-1.6l-1.3-.4-1.3-.5-1.2-.7a1.6,1.6,0,0,1-.7-.7v-.6l.2-.5a9,9,0,0,1,.7-2.7l.9-2.7a19,19,0,0,0,.9-2.9,10.1,10.1,0,0,0,.4-2.9c0-.3,0-.4-.1-.5h-.2a2.8,2.8,0,0,0-1.4.9l-1.4,1.8L278,95.1l-1.5,2.8-1.3,2.8-1.3,2.5a19.6,19.6,0,0,1-1.2,2.1,9.2,9.2,0,0,1-.9,1.3l-1.7-.2-1.4-.6a5.7,5.7,0,0,1-1.3-.8l-1-.9c0-.1-.1-.2-.1-.3v-.3a10.9,10.9,0,0,1,.4-2.6,25,25,0,0,1,.9-2.5,25.6,25.6,0,0,1,1.1-2.4,16.3,16.3,0,0,0,1.1-2.3l.9-2.5a10.9,10.9,0,0,0,.3-2.6v-.9L268.9,89l-1.7,1.5L265.9,92l-1.1,1.2-1.1.9a2.5,2.5,0,0,1-1.2.4h-.4a1.5,1.5,0,0,1-.9-.2,1.9,1.9,0,0,1-1-.5,3.2,3.2,0,0,1-1-1l.6-1.1a13.1,13.1,0,0,0,.9-1.7l1.3-2.1a11.4,11.4,0,0,1,1.5-2.3,18.4,18.4,0,0,1,1.7-2.2,7.2,7.2,0,0,1,2-1.9,7.1,7.1,0,0,1,2.2-1.3,7.5,7.5,0,0,1,2.6-.5,6.2,6.2,0,0,1,1.8.3,11.5,11.5,0,0,1,1.7.6,4.4,4.4,0,0,1,1.5,1.2,5.7,5.7,0,0,1,1.1,1.6,8.6,8.6,0,0,1,1.7-1.5,5.3,5.3,0,0,1,2.6-.6l1.7.2a5.8,5.8,0,0,1,1.7.6l1.4,1.1a3.1,3.1,0,0,1,1,1.5l1.2-.9,1.3-.7,1.5-.5a8.4,8.4,0,0,1,1.8-.3,14.7,14.7,0,0,1,2.4,1.3,11.2,11.2,0,0,1,2.4,1.9,11,11,0,0,1,1.9,2.5,6.8,6.8,0,0,1,.7,2.7,5,5,0,0,1-.3,1.6c-.2.6-.5,1.1-.7,1.7l-.8,1.6a5.3,5.3,0,0,0-.5,1.5h.1a3.1,3.1,0,0,0-.2.8v.3l1.3-.9,1.6-1.5,1.7-1.8,1.6-1.8,1.3-1.6.8-1Z"/><path class="cls-22" d="M342.9,89.6a3.8,3.8,0,0,1,1.3,1.6,3.4,3.4,0,0,1,.4,1.6,5.3,5.3,0,0,1-.1,1.3l-.3,1.1a13.7,13.7,0,0,1-2,2.9,13.3,13.3,0,0,1-2.6,2.7,17.6,17.6,0,0,1-3,2.4,20.2,20.2,0,0,1-3.2,1.8,21.9,21.9,0,0,1-3.3,1.2,12,12,0,0,1-3.1.4l-2.3-.2-2-.7a4.4,4.4,0,0,1-1.5-1.2,2,2,0,0,1-.6-1.5,2.7,2.7,0,0,1,.2-1.2,15.1,15.1,0,0,1-3.3,1.3,20.9,20.9,0,0,1-3.4.4,11.8,11.8,0,0,1-3.5-.5,5.1,5.1,0,0,1-2.2-1.2,10.9,10.9,0,0,1-1.9-3.5,13.2,13.2,0,0,1-.6-3.9,10.6,10.6,0,0,1,.5-3.1,13.2,13.2,0,0,1,1.5-2.9,16.4,16.4,0,0,1,2.1-2.5l2.5-1.9a13.9,13.9,0,0,1,2.8-1.2,8.4,8.4,0,0,1,2.7-.4,12.4,12.4,0,0,1,4.1.8,13.3,13.3,0,0,1,4.2,2.5l.7-.6,1-.2h.5l.6.4h.8a1.3,1.3,0,0,1,.8.3,7.6,7.6,0,0,1,1.8,1.8,2.6,2.6,0,0,1,.7,1.4,4.1,4.1,0,0,1-.5,1.7l-1,1.9a32,32,0,0,0-1.9,3.6,20.1,20.1,0,0,0-1,3.5.5.5,0,0,0,.5.3,3,3,0,0,0,1.4-.6A15.8,15.8,0,0,0,333,98l2.6-1.9,2.7-2.3,2.5-2.2Zm-22-1.6a1.7,1.7,0,0,0-1.1.6l-1.3,1.2-1.2,1.6a18.8,18.8,0,0,0-1.2,1.8,6.7,6.7,0,0,0-.7,1.8,5,5,0,0,0-.3,1.6,1.3,1.3,0,0,0,.2.8l.8.2a5,5,0,0,0,2.6-.8,10.7,10.7,0,0,0,2.3-2,18.5,18.5,0,0,0,1.9-2.7l1.4-2.8-.2-.4-.7-.5-1-.3-1-.2Zm1.2-9.1.3-.5.3-.5,1.1-1.1.9-1a9.4,9.4,0,0,0,1-1l1-1.2c.1-.1.2-.3.4-.4l.4-.2,1.2.4,1.3.5,1.1.7,1,.6a1.8,1.8,0,0,1,.7.5.8.8,0,0,1,.3.7,1.9,1.9,0,0,1-.4,1.2,3.5,3.5,0,0,1-1,1.1,8.3,8.3,0,0,1-1.6.9l-1.7.7-1.8.4h-2.7a1.4,1.4,0,0,1-.9-.3l-.7-.4a.9.9,0,0,1-.3-.7Z"/><path class="cls-22" d="M339.7,92.6l2.7-2.6,2.7-2.7c.9-1,1.7-2,2.6-3.2a41.8,41.8,0,0,0,2.5-3.8.7.7,0,0,0,.1-.5v-.9a4,4,0,0,0,.3-1.5V76a1.9,1.9,0,0,0,.1-.8c.1-.4.1-.7.2-1l.5-.9a.9.9,0,0,1,.7-.3,2.4,2.4,0,0,1,1.3.4,8.1,8.1,0,0,1,1.8,1l2,1.3,1.9,1.6,1.4,1.4.8,1.1a1.1,1.1,0,0,1,.1.5v.3a4.5,4.5,0,0,1-.1,1.1,4.1,4.1,0,0,0-.1,1.2,2.8,2.8,0,0,0,.1.6,12,12,0,0,0,.6,1.7c.2.8.5,1.6.8,2.5a24.5,24.5,0,0,1,.8,2.9,14.1,14.1,0,0,1,.3,2.8l.9-1c.5-.6,1.1-1.1,1.7-1.7l2.3-1.9.7.5a3.8,3.8,0,0,1,.9.9l.9,1a1.3,1.3,0,0,1,.3.7,35.4,35.4,0,0,1-3.8,4.7,31.6,31.6,0,0,1-4.2,4,24.2,24.2,0,0,1-5,2.7,15.2,15.2,0,0,1-5.7,1,9.1,9.1,0,0,1-2.7-.5,13.5,13.5,0,0,1-2.6-1.5,17,17,0,0,1-2.4-2.2,15,15,0,0,1-1.9-2.5l-1,1.1a2.4,2.4,0,0,1-1.8.2l-1.5-.7a5.8,5.8,0,0,1-1-1.2,3.4,3.4,0,0,1-.4-1,2.9,2.9,0,0,1,.8-1.9A10.3,10.3,0,0,1,339.7,92.6Zm16.4-1.5-.3-2.2a16.7,16.7,0,0,0-.5-1.9,18.8,18.8,0,0,1-1.6,2.3l-1.9,2.1-2.2,1.9L347.5,95a3.1,3.1,0,0,0,1.5,1.2,3.7,3.7,0,0,0,1.6.4,5.4,5.4,0,0,0,2.2-.4,4.3,4.3,0,0,0,1.7-1.2,8.8,8.8,0,0,0,1.2-1.7,4.8,4.8,0,0,0,.4-2Z"/><path class="cls-22" d="M241.3,155l2.7-2.6,2.7-2.7c.9-1,1.7-2,2.6-3.2a41.8,41.8,0,0,0,2.5-3.8.7.7,0,0,0,.1-.5v-.9a4,4,0,0,0,.3-1.5v-1.4a1.9,1.9,0,0,0,.1-.8c.1-.4.1-.7.2-1a4.1,4.1,0,0,1,.5-.9.9.9,0,0,1,.7-.3,2.7,2.7,0,0,1,1.3.4l1.8,1,2,1.3,1.9,1.6,1.4,1.4.8,1.1a1.1,1.1,0,0,1,.1.5v.3a4.5,4.5,0,0,1-.1,1.1,4.1,4.1,0,0,0-.1,1.2,2.8,2.8,0,0,0,.1.6,12,12,0,0,0,.6,1.7c.2.8.5,1.6.8,2.5a24.5,24.5,0,0,1,.8,2.9,14.1,14.1,0,0,1,.3,2.8l.9-1c.5-.6,1.1-1.1,1.7-1.7l2.3-1.9.6.5a2.8,2.8,0,0,1,1,.9l.9,1a1.3,1.3,0,0,1,.3.7,35.4,35.4,0,0,1-3.8,4.7,27.2,27.2,0,0,1-4.3,4,21.2,21.2,0,0,1-4.9,2.7,15.2,15.2,0,0,1-5.7,1,9.1,9.1,0,0,1-2.7-.5,13.5,13.5,0,0,1-2.6-1.5,17,17,0,0,1-2.4-2.2,11,11,0,0,1-1.9-2.5l-1,1.1a2.4,2.4,0,0,1-1.8.2,5.2,5.2,0,0,1-1.5-.7,5.8,5.8,0,0,1-1-1.2,3.4,3.4,0,0,1-.4-1,2.9,2.9,0,0,1,.8-1.9A10.3,10.3,0,0,1,241.3,155Zm16.4-1.5-.3-2.2a16.7,16.7,0,0,0-.5-1.9,18.8,18.8,0,0,1-1.6,2.3l-1.9,2.1-2.2,1.9-2.1,1.7a3.1,3.1,0,0,0,1.5,1.2,3.7,3.7,0,0,0,1.6.4,5.4,5.4,0,0,0,2.2-.4,4.3,4.3,0,0,0,1.7-1.3,6.1,6.1,0,0,0,1.2-1.6,7.1,7.1,0,0,0,.4-2Z"/><path class="cls-22" d="M304.9,152a3.8,3.8,0,0,1,1.3,1.6,5.3,5.3,0,0,1,.4,1.6c0,.5-.1.9-.1,1.3l-.3,1.1a18.7,18.7,0,0,1-2,2.9,16.6,16.6,0,0,1-2.6,2.7,31.5,31.5,0,0,1-3,2.4l-3.3,1.8a21.9,21.9,0,0,1-3.3,1.2,11.5,11.5,0,0,1-3.1.4l-2.2-.2-2.1-.7a4.4,4.4,0,0,1-1.5-1.2,2,2,0,0,1-.6-1.5,3,3,0,0,1,.3-1.2,14,14,0,0,1-3.4,1.3,18.6,18.6,0,0,1-3.4.4,11.1,11.1,0,0,1-3.4-.5,5.1,5.1,0,0,1-2.2-1.2,10.9,10.9,0,0,1-1.9-3.5,13.2,13.2,0,0,1-.6-3.9,10.6,10.6,0,0,1,.5-3.1,9.7,9.7,0,0,1,1.4-2.9,16.4,16.4,0,0,1,2.1-2.5,24.8,24.8,0,0,1,2.6-1.9l2.7-1.2a9.5,9.5,0,0,1,2.8-.4,12.4,12.4,0,0,1,4.1.8,15.9,15.9,0,0,1,4.2,2.5l.7-.6.9-.2h.6l.6.4h.8a1.1,1.1,0,0,1,.7.3,11.1,11.1,0,0,1,1.9,1.8,2.4,2.4,0,0,1,.6,1.4,3.8,3.8,0,0,1-.4,1.7l-1,1.9a32,32,0,0,0-1.9,3.6,14,14,0,0,0-1,3.5c0,.2.2.3.4.3a2.9,2.9,0,0,0,1.5-.6,11.3,11.3,0,0,0,2.2-1.4l2.6-1.9a32.3,32.3,0,0,0,2.7-2.3l2.6-2.2Zm-22-1.6a1.7,1.7,0,0,0-1.1.6,4.9,4.9,0,0,0-1.3,1.2c-.4.5-.9,1-1.3,1.6a17.4,17.4,0,0,0-1.1,1.8,14.2,14.2,0,0,0-.8,1.8,5,5,0,0,0-.3,1.6c0,.4.1.7.3.8l.8.2a4.6,4.6,0,0,0,2.5-.8,8.7,8.7,0,0,0,2.3-2,13.1,13.1,0,0,0,1.9-2.7,19.1,19.1,0,0,0,1.5-2.8.5.5,0,0,0-.3-.4c-.1-.2-.4-.3-.7-.5l-.9-.3-1-.2Z"/><path class="cls-22" d="M315.7,167.8a5.4,5.4,0,0,1-1.9-.4,16.3,16.3,0,0,1-2.5-1l-2.7-1.4-2.4-1.6-1.8-1.4c-.5-.5-.7-.8-.7-1.1a14.8,14.8,0,0,1-.1-2.1,27.9,27.9,0,0,1,.7-6.4,49.1,49.1,0,0,1,1.7-6.3c.8-2.1,1.6-4.1,2.5-6.1s1.9-4,2.8-5.9l2.1-4a16.2,16.2,0,0,1,1-1.8,14.3,14.3,0,0,1,1.4-2,16.3,16.3,0,0,1,1.7-2,15.1,15.1,0,0,1,2-1.7,12.7,12.7,0,0,1,2.3-1.2,6.9,6.9,0,0,1,2.4-.5,3.3,3.3,0,0,1,1.6.5,7,7,0,0,1,1.7,1.3,12.9,12.9,0,0,1,1.6,1.7l1.4,1.7.9,1.5a2.7,2.7,0,0,1,.3.8v.4a21.5,21.5,0,0,1-.8,5.5,32.8,32.8,0,0,1-2.4,5.5,43.2,43.2,0,0,1-3.4,5.3c-1.3,1.7-2.6,3.4-4,4.9a55.1,55.1,0,0,1-4.3,4.1,44,44,0,0,1-4,3.1,2.8,2.8,0,0,0,.1.8,2,2,0,0,0,.3,1.1,5.1,5.1,0,0,0,.4,1,.8.8,0,0,0,.7.4l1-.3,1.1-.7,2.5-1.7,2.3-1.8,2.1-1.8,1.7-1.6,1.3-1,1.1-.3a2,2,0,0,1,1.4.5,1.8,1.8,0,0,1,.6,1.5,5.6,5.6,0,0,1-.7,2.4,34,34,0,0,1-1.8,3,37.5,37.5,0,0,1-2.6,3.3l-3,2.9a13.7,13.7,0,0,1-3,2.1A4.8,4.8,0,0,1,315.7,167.8Zm9.8-38.6a34.4,34.4,0,0,0-2.8,3.6c-.8,1.3-1.7,2.7-2.5,4.2s-1.7,3.1-2.5,4.8l-2.6,5.5h.2a11.5,11.5,0,0,0,2.4-1.8,20.4,20.4,0,0,0,2.3-2.7,19.6,19.6,0,0,0,2-3,27,27,0,0,0,1.5-2.9l.8-2c.3-.6.5-1.3.8-1.9l.6-1.9.3-1.7-.3-.2Z"/><path class="cls-22" d="M356.2,151.4,358,153l1,.9.4.5.3.2-.2.4-.4.6-.7.9-1.1,1.6-1.2,1.8-1.3,1.8-1.1,1.7-.9,1-.5.5-1.1,1-1.4.9-1.5.7a3.5,3.5,0,0,1-1.4.3,10.7,10.7,0,0,1-2.5-.3,8.5,8.5,0,0,1-2.2-.9l-1.7-1.4a8.2,8.2,0,0,1-1.2-2l-.9,1-1.2.9a4.2,4.2,0,0,1-1.4.6,4,4,0,0,1-1.5.3l-1.6-.2-1.7-.4-1.5-.6-1.4-.5a9.7,9.7,0,0,1-3.6-2.3,4.8,4.8,0,0,1-1.3-3.5,7.9,7.9,0,0,1,.5-2.5,20,20,0,0,1,1-2.6l1.2-2.5a7.4,7.4,0,0,0,.8-2.2,4.1,4.1,0,0,1,.5-.9l.6-.6.8-.4h.6a6,6,0,0,1,1.1.6l1.2.9,1.1.9,1.2.9c.1.2.3.3.5.5a.5.5,0,0,1,.3.5,3,3,0,0,1-.3,1.1,10.1,10.1,0,0,1-.7,1.5l-.6,1.6a12.4,12.4,0,0,0-.4,1.6,2,2,0,0,1-.1.7v1.3c0,.3.1.4.2.4s.7-.7,1.2-1.2l1.2-1.9c.4-.7.9-1.4,1.3-2.2l1.2-2.2,1.1-1.9.9-1.2.6-.4h.8a3.7,3.7,0,0,1,1.4.4,4.7,4.7,0,0,1,1,1l.6,1a2.2,2.2,0,0,0,.5.8l.6.8.9.7.6.8a1.5,1.5,0,0,1,.1.7,6.9,6.9,0,0,1-.2,1.3,8.3,8.3,0,0,1-.4,1.5,9.4,9.4,0,0,1-.4,1.6,7.1,7.1,0,0,0-.1,1.4c0,.4.1.7.3.8l1.4-1,2-1.8,2.1-2.1a20.8,20.8,0,0,0,2.1-2.1l1.7-1.7Z"/><path class="cls-22" d="M388.7,154.6c.1,0,.1.2-.1.6l-.5,1.1-.7,1.2-.5.7a26.8,26.8,0,0,1-3.9,4.2,21.6,21.6,0,0,1-3.8,2.8,17.1,17.1,0,0,1-3.1,1.5,7.3,7.3,0,0,1-2.1.4l-1.2-.3-1.5-.6-1.4-.9-1.1-1-1.4,1.1-1.4.9-1.4.7a4.1,4.1,0,0,1-1.6.3l-1.1-.3-1.6-.6-1.9-.9-1.8-1-1.6-1a3.8,3.8,0,0,1-.9-.9,7.6,7.6,0,0,1-.9-1.8,6.9,6.9,0,0,1-.3-2,10.5,10.5,0,0,1,.6-3.3,18.7,18.7,0,0,1,1.5-3.2q1-1.7,2.1-3a19.3,19.3,0,0,1,2.4-2.5,13.3,13.3,0,0,1,3.5-2.5,8.1,8.1,0,0,1,3.7-.9,8.6,8.6,0,0,1,2.7.5,8.3,8.3,0,0,1,2.5,1.5c.3-.9.6-1.9.8-2.8s.6-1.9.8-2.8.5-1.8.8-2.6l.6-2.3q.3-.9.6-2.1c.2-.8.5-1.5.7-2.3l.9-1.9a2.4,2.4,0,0,1,1-1l1.9,1.2,1.9,1.6a11,11,0,0,1,1.5,1.6,5,5,0,0,1,.9,1.3c-.3,1-.6,2.2-1.1,3.5l-1.4,4c-.5,1.5-1.1,3-1.6,4.6s-1.2,3.1-1.7,4.6-1.1,3.1-1.6,4.8-.9,3.1-1.3,4.6a4,4,0,0,0,1.6-.7l2-1.6c.7-.7,1.5-1.3,2.2-2.1l2.1-2,.7-.7.4-.3Zm-18.6-4-.5-.3h-.5a8.6,8.6,0,0,0-2.2,1.5,14.5,14.5,0,0,0-2.2,2.1l-1.7,2.5a6,6,0,0,0-.6,2.4,1.9,1.9,0,0,0,.1.8.9.9,0,0,0,.3.6l2.2-1.2a21.2,21.2,0,0,0,2.4-2,15.7,15.7,0,0,0,2-2.5,6.4,6.4,0,0,0,.8-3C370.2,151.2,370.1,150.9,370.1,150.6Z"/><path class="cls-22" d="M944.1,183a3.7,3.7,0,0,1-1.5-.5l-1.9-1.2-2.1-1.8-2.1-1.9-2-1.9-1.6-1.7q-.6,1.8-1.2,3.9l-1.2,4.1-1.3,4.3c-.5,1.4-.9,2.8-1.3,4.1s-.8,2.5-1.1,3.7-.6,2.1-.9,3a3.7,3.7,0,0,0-.2.9l-.3.5c0,.2-.2.3-.4.4h-.7a4.1,4.1,0,0,1-2.1-.5,7.2,7.2,0,0,1-2.1-1.2l-1.6-1.5a2.4,2.4,0,0,1-.6-1.4c-.1-.1-.1-.2-.1-.4v-.4a34.2,34.2,0,0,1,.4-4.4c.3-1.6.7-3.1,1.1-4.7s.9-3.2,1.5-4.9l1.7-4.9c.5-1.7,1-3.3,1.6-4.9s.9-3.2,1.3-4.7h.1l.3-1.3a3.6,3.6,0,0,1,.4-.9,2.4,2.4,0,0,1,.9-.6,3.5,3.5,0,0,1,1.6-.3,16.4,16.4,0,0,1,2.4,1.9,39,39,0,0,1,2.8,2.9l2.9,3.1,2.5,3,2,2.1q.9.9,1.2.9l1.2-1,2.1-1.8c.8-.7,1.7-1.5,2.8-2.3l3.1-2.6c1.1-.8,2.1-1.7,3.3-2.5a29.2,29.2,0,0,1,3.2-2.1,17.1,17.1,0,0,1,2.9-1.6,6,6,0,0,1,2.4-.6l1.6,1.1,1.5,1.2a8,8,0,0,1,1.3,1.3,5.5,5.5,0,0,1,.8,1.5l-.5,1.1v.4l-1.6,3.8c-.6,1.4-1.3,3-1.9,4.7s-1.4,3.3-2.1,5.1-1.3,3.6-2,5.4l-1.9,5.1-1.7,4.6-1.5,3.7-.9,2.5h-1.3l-2.2-.2a10.2,10.2,0,0,1-2.1-.8,7.6,7.6,0,0,1-1.7-1.3,2.4,2.4,0,0,1-.6-1.7,13.1,13.1,0,0,1,.3-2.3,32.9,32.9,0,0,1,.9-3.2,33,33,0,0,1,1.2-3.8c.5-1.3.9-2.7,1.4-4s.9-2.6,1.4-3.7.8-2.3,1.2-3.2l.9-2.1.3-.9Z"/><path class="cls-22" d="M962.3,198.3l-.4-.7-.4-.8a1.5,1.5,0,0,1,.1-.7l.2-.8c.4-1.6.9-3.3,1.4-5.2s1.1-3.8,1.7-5.8l1.8-6c.6-2,1.2-3.9,1.8-5.6s1.1-3.4,1.7-4.8,1-2.7,1.4-3.6a3.3,3.3,0,0,1,1.4-.9l2.7-.8,3.6-.8,4.3-.6,4.3-.6,4-.4,3.3-.2h4l1.4.5a2.8,2.8,0,0,1,.9,1,2.9,2.9,0,0,1,.4,1.4v.2l-.8.6-1.1.3-.7.2-8.5,2c-2.7.7-5.6,1.2-8.5,1.7a1.1,1.1,0,0,0-1,.5,5,5,0,0,0-.4,1.3c-.1.5-.3,1.1-.4,1.5a11.2,11.2,0,0,0-.5,1.3c-.2.4-.3.8-.5,1.3a15.5,15.5,0,0,0-.4,1.5l2-.3,2.2-.3,2.1-.3h1.8a4,4,0,0,1,1.7.3,2.6,2.6,0,0,1,1.4.5,2.4,2.4,0,0,1,.9.8,3.7,3.7,0,0,1,.5,1.1,5.9,5.9,0,0,1,.2,1.3l-1.2.6a18.2,18.2,0,0,1-2.9.8l-2.9.6-3,.6-3.1.6-1.1.3-.5.2a.8.8,0,0,0-.4.4,5.1,5.1,0,0,0-.4,1l-1.1,2.7c-.4.9-.7,1.8-1,2.7l-.9,2.6c-.3.9-.6,1.6-.8,2.4l3.8-.7,4-.9,4.1-1.1,4.1-.9,4-.7,3.8-.3a2.5,2.5,0,0,1,2,.6,2,2,0,0,1,.6,1.4,2.6,2.6,0,0,1-.3,1.1,1.5,1.5,0,0,1-.6.9l-4.4,1.6-4.7,1.7-4.9,1.8L979,200l-.9.2-1.7.4-2.4.4-2.7.5-2.6.4h-2.3l-1.6-.2Z"/><path class="cls-22" d="M1042.9,161.7v1c-.9,1.7-2,3.7-3,5.8s-2.2,4.5-3.2,6.9-2.1,4.9-3,7.4-1.9,4.8-2.6,7.1-1.4,4.4-1.9,6.4a22,22,0,0,0-1,5l-.3.7-.8.7-1.1.5a3.2,3.2,0,0,1-1.4.2l-1.8-.3a7.3,7.3,0,0,1-2-1.4,17.8,17.8,0,0,1-1.7-3.4l-1.8-4.8c-.5-1.7-1.1-3.5-1.6-5.4s-1.1-3.7-1.6-5.4a15,15,0,0,1-.6-2.2,15.6,15.6,0,0,0-.5-1.6,5,5,0,0,0-.4-1.3,6.5,6.5,0,0,0-.4-1.3c-.3.8-.6,1.7-.9,2.8l-1.2,3.4c-.4,1.2-.8,2.4-1.3,3.7s-.9,2.6-1.3,3.9l-1.4,3.6q-.6,1.8-1.2,3.3a26.4,26.4,0,0,1-1,2.7l-.7,1.8h-.4a4.8,4.8,0,0,1-1.8-.3,5.3,5.3,0,0,1-1.5-.8l-1.3-1a4.4,4.4,0,0,0-1.1-.9l-.7-.6-.6-.7.5-1.6c.8-2.7,1.8-5.5,2.8-8.3s2.1-5.6,3.2-8.5,2.4-5.5,3.7-8.2,2.5-5.4,3.9-8a2,2,0,0,1,.8-.8,1.7,1.7,0,0,1,1-.3l1,.2.9.8a43.4,43.4,0,0,1,3.3,5.6c.9,2,1.8,4.1,2.6,6.2s1.5,4.3,2.2,6.4l1.6,6.1c.6-1.5,1.1-3.1,1.7-4.8s1.3-3.5,1.9-5.3l2.1-5.1c.7-1.7,1.5-3.2,2.2-4.6l.7-1a9.4,9.4,0,0,1,1-1.4,10.6,10.6,0,0,1,1.5-1.5,8.6,8.6,0,0,1,1.8-1.4,7,7,0,0,1,2.1-1.1,10.1,10.1,0,0,1,2.5-.4h1.4l.4.3h.3Z"/><path class="cls-22" d="M1052.1,200.9a4.1,4.1,0,0,1-1.9-.6l-2.3-1.5a16.9,16.9,0,0,1-2.6-2.2l-2.5-2.5c-.9-.9-1.6-1.8-2.4-2.7a19.9,19.9,0,0,1-1.9-2.4l-1.4-1.8a4.1,4.1,0,0,1-.5-1.1v-.3a22.4,22.4,0,0,1,1.3-7.6,20,20,0,0,1,3.5-5.8,21.7,21.7,0,0,1,5.2-4.3,33.2,33.2,0,0,1,6.3-3,52,52,0,0,1,6.8-1.7,56,56,0,0,1,6.9-.5,6.6,6.6,0,0,1,3,.7,22.9,22.9,0,0,1,2.9,1.8,31.9,31.9,0,0,1,2.6,2.6l2.2,3a13.5,13.5,0,0,1,1.4,3,6.5,6.5,0,0,1,.6,2.6.4.4,0,0,0,.1.3v.4a18.3,18.3,0,0,1-1.1,6.1,23.4,23.4,0,0,1-3,5.6,28.1,28.1,0,0,1-4.4,4.8,31,31,0,0,1-5.7,3.7,28.5,28.5,0,0,1-6.3,2.5A26.5,26.5,0,0,1,1052.1,200.9Zm.7-6.2a13.5,13.5,0,0,0,4.7-.9,28.5,28.5,0,0,0,4.5-2.5,27.9,27.9,0,0,0,4.2-3.5,41.8,41.8,0,0,0,3.4-4.2,21.9,21.9,0,0,0,2.2-4.3,9.9,9.9,0,0,0,.9-3.8,1.9,1.9,0,0,0-.7-1.4,5,5,0,0,0-1.5-1.4,6.7,6.7,0,0,0-1.8-1.1,3.7,3.7,0,0,0-1.5-.5,23.6,23.6,0,0,0-4.4.7,25.1,25.1,0,0,0-4.6,1.6,24.4,24.4,0,0,0-4.1,2.4,18.4,18.4,0,0,0-3.5,3.3,19,19,0,0,0-2.3,3.9,10.5,10.5,0,0,0-.9,4.4v.3c0,.1.1.3.4.7l.9,1.4,1.3,1.7c.4.5.8,1.1,1.2,1.5l1.1,1.2Z"/><path class="cls-22" d="M1076.2,195.2c0,.1.1.2.1.4S1076.2,195.7,1076.2,195.2Zm13.5.3a10.6,10.6,0,0,0,2.4-.2,17.2,17.2,0,0,0,2.8-.8l2.8-1.2a22,22,0,0,0,2.5-1.7,12.4,12.4,0,0,0,1.8-2.2,5.8,5.8,0,0,0,.9-2.5v-.2a2.1,2.1,0,0,0-.8-1.4l-1.9-1.4-2.8-1.6-3.2-1.7-3.1-1.9a22.7,22.7,0,0,1-2.8-2.1,7.7,7.7,0,0,1-1.9-2.2,4.6,4.6,0,0,1-.8-2.5,4.1,4.1,0,0,1,1-2.7,9.1,9.1,0,0,1,2.4-2.4,28.9,28.9,0,0,1,3.5-1.9,24.3,24.3,0,0,1,3.8-1.3l3.7-.9,3-.3,2.7.2a5.2,5.2,0,0,1,2.2.7,4.3,4.3,0,0,1,1.7,1.3,5.8,5.8,0,0,1,.9,2.1,7.3,7.3,0,0,1,.3,2.2v.4l-4.3.2-4.3.2-3.7.5a5.7,5.7,0,0,0-2.5,1l2.4,1.2,3.6,1.8,3.4,1.8,3.2,1.9a17.9,17.9,0,0,1,2.5,2.2,11.8,11.8,0,0,1,1.7,2.4,6.6,6.6,0,0,1,.6,2.7v.6a13,13,0,0,1-1.1,4.9,15.5,15.5,0,0,1-2.5,4.1,18.3,18.3,0,0,1-3.6,3.1,28.9,28.9,0,0,1-4.3,2.2,25.2,25.2,0,0,1-4.7,1.3,25.6,25.6,0,0,1-4.7.4,24.9,24.9,0,0,1-4.9-.4,36.2,36.2,0,0,1-4.1-.9,19.2,19.2,0,0,1-3.2-1.4,15.3,15.3,0,0,1-2.3-1.5l-1.4-1.4-.3-.6a1.1,1.1,0,0,1,.1-.5,3.3,3.3,0,0,1,.5-1.6,2.3,2.3,0,0,1,1.2-.6,5,5,0,0,1,1.9-.3,4.6,4.6,0,0,1,2.1.5,5.9,5.9,0,0,1,2.1,1.9,2.3,2.3,0,0,0,2.4,1A9.6,9.6,0,0,1,1089.7,195.5Z"/><path class="cls-22" d="M922.2,264.3a10,10,0,0,1-2-.4l-2.8-1.1-3.3-1.6-3.4-2-3.2-2.3a34.5,34.5,0,0,1-2.8-2.3,17.4,17.4,0,0,1-1.9-2.2,3.5,3.5,0,0,1-.7-2v-1.9a20,20,0,0,1,1.5-5.4,25.5,25.5,0,0,1,3.1-5.2,33.7,33.7,0,0,1,4.5-4.8,30.7,30.7,0,0,1,5.6-3.8,29.6,29.6,0,0,1,6.4-2.6,23.7,23.7,0,0,1,7-1,8.6,8.6,0,0,1,2.8.4,5.9,5.9,0,0,1,3.7,2.9,8.3,8.3,0,0,1,.8,2.2,6.8,6.8,0,0,1,.2,1.4,4.1,4.1,0,0,1-.7,2.2,9.1,9.1,0,0,1-1.7,1.7,18.8,18.8,0,0,1-1.8,1.2l-1.2.6-.6.2h-.3a11198694281915.8,11198694281915.8,0,0,0-1.4-1l-3.9-4.2a13.5,13.5,0,0,0-3,1.4,30,30,0,0,0-3,2.3,38.4,38.4,0,0,0-2.7,2.9,22,22,0,0,0-2.1,3.2,26.3,26.3,0,0,0-1.5,3.5,13.3,13.3,0,0,0-.5,3.4,3,3,0,0,0,.3,1.1,8,8,0,0,0,.9,1.4l1.3,1.6,1.8,1.5,1.9,1.4,1.9.9a3.4,3.4,0,0,0,1.6.4,3.8,3.8,0,0,0,1.4-.4l2.2-1.2,2.9-1.7,3.1-2,3.1-2,2.8-1.7,2.2-1.2a4.7,4.7,0,0,1,1.4-.5.8.8,0,0,1,.7.4,1,1,0,0,1,.3.8,5,5,0,0,1-1.1,2.9,26.3,26.3,0,0,1-2.8,3.4,49.1,49.1,0,0,1-4.1,3.3,37.9,37.9,0,0,1-4.5,2.9,26.5,26.5,0,0,1-4.6,2.1A11.8,11.8,0,0,1,922.2,264.3Z"/><path class="cls-22" d="M954.3,263.3a3.8,3.8,0,0,1-1.9-.6,22.9,22.9,0,0,1-2.4-1.5,23.2,23.2,0,0,1-2.5-2.2l-2.6-2.5-2.3-2.7a21.2,21.2,0,0,1-2-2.4l-1.3-1.8a4.1,4.1,0,0,1-.5-1.1v-.3a20.2,20.2,0,0,1,1.3-7.6,18,18,0,0,1,3.5-5.8,21.7,21.7,0,0,1,5.2-4.3,32.3,32.3,0,0,1,6.2-3,49.7,49.7,0,0,1,6.9-1.7,54.7,54.7,0,0,1,6.9-.5,6.5,6.5,0,0,1,2.9.7,17.5,17.5,0,0,1,2.9,1.8,33.1,33.1,0,0,1,2.7,2.6,27.3,27.3,0,0,1,2.1,3,21,21,0,0,1,1.5,3,6.5,6.5,0,0,1,.6,2.6v.7a18.1,18.1,0,0,1-1,6.1,33.7,33.7,0,0,1-3,5.6,28.9,28.9,0,0,1-4.5,4.8,30.2,30.2,0,0,1-5.6,3.7,27.5,27.5,0,0,1-6.4,2.5A25.2,25.2,0,0,1,954.3,263.3Zm.7-6.2a12.5,12.5,0,0,0,4.6-.9,29.4,29.4,0,0,0,4.6-2.5,23,23,0,0,0,4.1-3.5,31.3,31.3,0,0,0,3.4-4.2,18,18,0,0,0,2.3-4.3,9.6,9.6,0,0,0,.8-3.8,2.2,2.2,0,0,0-.6-1.4,5,5,0,0,0-1.5-1.4,8.7,8.7,0,0,0-1.8-1.1,3.7,3.7,0,0,0-1.5-.5,26,26,0,0,0-4.5.7,26.9,26.9,0,0,0-4.5,1.6,21.8,21.8,0,0,0-4.2,2.4,21.3,21.3,0,0,0-3.4,3.3,12.9,12.9,0,0,0-2.3,3.9,10.5,10.5,0,0,0-.9,4.4v.3c0,.1.1.3.4.7a8,8,0,0,0,.9,1.4l1.2,1.7,1.3,1.5a6.5,6.5,0,0,0,1.1,1.2Z"/><path class="cls-22" d="M1000.3,264.3a10,10,0,0,1-2-.4l-2.8-1.1-3.3-1.6-3.4-2-3.2-2.3a21.5,21.5,0,0,1-2.7-2.3,19,19,0,0,1-2-2.2,3.5,3.5,0,0,1-.7-2v-1.9a20,20,0,0,1,1.5-5.4,25.5,25.5,0,0,1,3.1-5.2,33.7,33.7,0,0,1,4.5-4.8,30.7,30.7,0,0,1,5.6-3.8,29.6,29.6,0,0,1,6.4-2.6,23.7,23.7,0,0,1,7-1,8.2,8.2,0,0,1,2.8.4,5.9,5.9,0,0,1,3.7,2.9,8.3,8.3,0,0,1,.8,2.2,6.8,6.8,0,0,1,.2,1.4,4.1,4.1,0,0,1-.7,2.2,9.1,9.1,0,0,1-1.7,1.7l-1.8,1.2-1.2.6-.6.2h-.3a11198694281915.6,11198694281915.6,0,0,1-1.4-1l-3.9-4.2a13.5,13.5,0,0,0-3,1.4,30,30,0,0,0-3,2.3,38.4,38.4,0,0,0-2.7,2.9,22,22,0,0,0-2.1,3.2,26.3,26.3,0,0,0-1.5,3.5,13.3,13.3,0,0,0-.5,3.4,3,3,0,0,0,.3,1.1,8,8,0,0,0,.9,1.4l1.4,1.6,1.7,1.5,1.9,1.4,1.9.9a3.4,3.4,0,0,0,1.6.4,3.8,3.8,0,0,0,1.4-.4l2.2-1.2,2.9-1.7,3.1-2,3.1-2,2.8-1.7,2.2-1.2a4.7,4.7,0,0,1,1.4-.5.8.8,0,0,1,.7.4,1,1,0,0,1,.3.8,5,5,0,0,1-1.1,2.9,20,20,0,0,1-2.8,3.4,36.8,36.8,0,0,1-4.1,3.3,37.9,37.9,0,0,1-4.5,2.9,26.5,26.5,0,0,1-4.6,2.1A11.8,11.8,0,0,1,1000.3,264.3Z"/><path class="cls-22" d="M1028.7,222.7a4,4,0,0,1,1.1-1.4,1.9,1.9,0,0,1,1.4-.5h1.5l2.2.4,2.1.6a3.1,3.1,0,0,1,1.2.9,10.3,10.3,0,0,1-.4,1.4c-.3.8-.6,1.6-1,2.5l-1,2.7-1.2,3a20.9,20.9,0,0,1-1.1,3l-.9,2.9c-.3.9-.5,1.8-.7,2.5l3.4-.4,3.1-.5,3.1-.6,3.1-.6,3.6-.7c.4-1,.9-2.2,1.5-3.5l1.8-4.3,1.8-4.3c.6-1.4,1.1-2.6,1.5-3.7a6.6,6.6,0,0,1,1.4-2.4,2.7,2.7,0,0,1,1.9-.8h.9l1.4.4,1.5.6,1.5.7,1.1.9a2.1,2.1,0,0,1,.5,1.1c-.8,3.1-1.9,6.3-3.1,9.6l-4,10-4.1,10.2c-1.4,3.3-2.6,6.6-3.7,9.7l-.7.2h-1.7l-1.5-.3-1.7-.4-1.6-.6-1.4-.9a1.9,1.9,0,0,1-.8-1c.1-.4.3-.6.5-.6s.4-.4.6-1.6a18.3,18.3,0,0,1,.7-2.6,12.6,12.6,0,0,0,.9-2.6l1.2-3.5c.5-1.3,1-2.7,1.5-4.3l-3.7.5-4.1.6-4.1.7-3.9.6-6.9,16.3-.9.2h-.9l-1-.3-2.1-.5-1.8-.9a8.5,8.5,0,0,1-1.4-1,2.1,2.1,0,0,1-.5-.9,15.9,15.9,0,0,1,.4-2.3c.3-1,.6-2.2,1.1-3.6l1.6-4.7c.7-1.7,1.3-3.4,2.1-5.3s1.4-3.7,2.2-5.6,1.5-3.7,2.2-5.5l2.3-5.1Z"/><path class="cls-22" d="M1057,260.7l-.4-.7-.5-.8a6.4,6.4,0,0,1,.2-.7l.2-.8c.4-1.6.9-3.3,1.4-5.2s1.1-3.8,1.6-5.8l1.8-6c.6-2,1.2-3.9,1.8-5.6s1.2-3.4,1.7-4.8l1.5-3.6a2.9,2.9,0,0,1,1.3-.9l2.7-.8,3.7-.8,4.2-.6,4.4-.6,4-.4,3.3-.2h3.9a4.6,4.6,0,0,1,1.4.5,3.2,3.2,0,0,1,1,1,2.9,2.9,0,0,1,.3,1.4v.2l-.8.6-1,.3-.8.2-8.4,2c-2.8.7-5.6,1.2-8.5,1.7a1.1,1.1,0,0,0-1,.5,5,5,0,0,0-.4,1.3c-.2.5-.3,1.1-.5,1.5s-.3.9-.4,1.3a5,5,0,0,0-.5,1.3,5.4,5.4,0,0,0-.4,1.5l1.9-.3,2.2-.3,2.2-.3h1.8a4,4,0,0,1,1.7.3,2.9,2.9,0,0,1,1.4.5,2.4,2.4,0,0,1,.9.8,3.7,3.7,0,0,1,.5,1.1,5.7,5.7,0,0,1,.1,1.3,2.3,2.3,0,0,1-1.2.6,14.7,14.7,0,0,1-2.8.8l-2.9.6-3,.6-3.1.6-1.1.3a1.1,1.1,0,0,0-.6.2l-.3.4-.5,1-1,2.7c-.4.9-.7,1.8-1,2.7a16.1,16.1,0,0,0-.9,2.6l-.9,2.4,3.8-.7,4-.9,4.2-1.1,4.1-.9,4-.7,3.8-.3a2.5,2.5,0,0,1,2,.6,2,2,0,0,1,.6,1.4,2.6,2.6,0,0,1-.3,1.1,3.5,3.5,0,0,1-.6.9l-4.4,1.6-4.7,1.7-4.9,1.8-5.1,1.7-.9.2-1.8.4-2.4.4-2.6.5-2.7.4h-2.2l-1.7-.2Z"/><path class="cls-22" d="M1091.4,257.6c.1.1.1.2.2.4S1091.4,258.1,1091.4,257.6Zm13.5.3a11,11,0,0,0,2.5-.2,16.2,16.2,0,0,0,2.7-.8,13.9,13.9,0,0,0,2.8-1.2,15.6,15.6,0,0,0,2.5-1.7,9.7,9.7,0,0,0,1.9-2.2,5.8,5.8,0,0,0,.9-2.5v-.2a2.1,2.1,0,0,0-.8-1.4l-2-1.4a23.2,23.2,0,0,0-2.8-1.6l-3.1-1.7-3.2-1.9-2.7-2.1a10.2,10.2,0,0,1-2-2.2,4.5,4.5,0,0,1-.7-2.5,4.6,4.6,0,0,1,.9-2.7,9.6,9.6,0,0,1,2.5-2.4,27.4,27.4,0,0,1,3.4-1.9,29.7,29.7,0,0,1,3.9-1.3l3.7-.9,3-.3,2.6.2a5.6,5.6,0,0,1,2.3.7,3.4,3.4,0,0,1,1.6,1.3,3.7,3.7,0,0,1,.9,2.1,5.1,5.1,0,0,1,.4,2.2v.4l-4.4.2-4.2.2-3.7.5a6.2,6.2,0,0,0-2.6,1l2.5,1.2,3.5,1.8,3.5,1.8,3.1,1.9a13.6,13.6,0,0,1,2.5,2.2,12.5,12.5,0,0,1,1.8,2.4,6.6,6.6,0,0,1,.6,2.7v.6a15.3,15.3,0,0,1-1.1,4.9,18.7,18.7,0,0,1-2.5,4.1,26.7,26.7,0,0,1-3.6,3.1,34.8,34.8,0,0,1-4.3,2.2,27.5,27.5,0,0,1-4.7,1.3,26.3,26.3,0,0,1-4.7.4,26,26,0,0,1-5-.4,34.2,34.2,0,0,1-4-.9,16.1,16.1,0,0,1-3.2-1.4,11.4,11.4,0,0,1-2.3-1.5,9.2,9.2,0,0,1-1.4-1.4c-.1-.2-.3-.4-.3-.6v-.5a2.4,2.4,0,0,1,.6-1.6,2.3,2.3,0,0,1,1.2-.6,5,5,0,0,1,1.9-.3,5.4,5.4,0,0,1,2.1.5,5.7,5.7,0,0,1,2,1.9,2.5,2.5,0,0,0,2.5,1A9,9,0,0,1,1104.9,257.9Z"/><path class="cls-22" d="M192.7,259.1a12.7,12.7,0,0,1-.7,4.4,13.6,13.6,0,0,1-2.3,3.4,9.1,9.1,0,0,1-4.6,2.4l-2.5.5-2.4.4c-.2,1.9-.4,3.3-.6,4.3a7.7,7.7,0,0,0-.2,1.5,7.6,7.6,0,0,1-2.1,4.6,11.7,11.7,0,0,1-3.5,2.3,11.2,11.2,0,0,1-4.5.7,14.4,14.4,0,0,1-3.6-.7,8.8,8.8,0,0,1-2.9-1.7,7.1,7.1,0,0,1-2.4-3.3,13.2,13.2,0,0,1-1-3,34.1,34.1,0,0,1-.8-3.7l-2.2-.2-1.7-.2-1.3-.3a7.6,7.6,0,0,1-4.6-2.1,10.9,10.9,0,0,1-2.2-3.4,12.1,12.1,0,0,1-.8-4.6,10,10,0,0,1,.8-3.5,11,11,0,0,1,1.6-3,8,8,0,0,1,3.4-2.4,11,11,0,0,1,2.9-1l3.7-.8a23.6,23.6,0,0,1,.4-2.8,20,20,0,0,1,.5-2.6,9.6,9.6,0,0,1,2.2-4.4,9.3,9.3,0,0,1,2.9-2.2,10.2,10.2,0,0,1,3.8-1,10,10,0,0,1,4.3.7,10.6,10.6,0,0,1,3.5,2.3,8,8,0,0,1,2.3,4.6l.6,2.4c.1.9.3,1.7.4,2.5a36.1,36.1,0,0,1,6,1.1,9.1,9.1,0,0,1,4.4,2.1,10,10,0,0,1,2.3,3A7.8,7.8,0,0,1,192.7,259.1Z"/><path class="cls-22" d="M100.2,307.8l3.4.2,2.5.6a7.5,7.5,0,0,1,1.8.7l1.1.8a2.6,2.6,0,0,1,1,2.1,4.8,4.8,0,0,1-.4,1.8,6.4,6.4,0,0,1-1,1.3,7.1,7.1,0,0,1-1.5.8l-1.7.5a17.7,17.7,0,0,1-4.7.3,8.9,8.9,0,0,1,3,.9,4.3,4.3,0,0,1,1.4,1.2,2.9,2.9,0,0,1,.4,1.6,3.4,3.4,0,0,1-.5,1.7l-1.2,1.1a3.8,3.8,0,0,1-1.3.6l-.7.2,2.8.2,2.1.5a5.2,5.2,0,0,1,1.5.7l1,.8a3.8,3.8,0,0,1,.8,2.3,2.4,2.4,0,0,1-.5,1.4,3.5,3.5,0,0,1-1,1.1l-1.5.7-1.7.5a20,20,0,0,1-4.5.5,18.1,18.1,0,0,1-3.4-.1,14.3,14.3,0,0,1-2.6-.6,6.8,6.8,0,0,1-1.9-.8l-1.4-.9a6.6,6.6,0,0,1-1.6-2.6,38.7,38.7,0,0,1-.5-4.9c0-1.7,0-3.2.1-4.7s.3-3.3.5-4.9a6.6,6.6,0,0,1,.8-2.1,6.1,6.1,0,0,1,1.3-1.5l1.6-1a6.4,6.4,0,0,1,1.8-.6A14.2,14.2,0,0,1,100.2,307.8Z"/><path class="cls-22" d="M122.3,316.5a24.4,24.4,0,0,1,3.4.8,11.8,11.8,0,0,1,2.5,1,8.3,8.3,0,0,1,1.8,1.3,6.3,6.3,0,0,1,1.1,1.3,6,6,0,0,1,1.1,3.4,8.2,8.2,0,0,1-.4,2.8,6.8,6.8,0,0,1-1,2.1,5.4,5.4,0,0,1-1.5,1.5,7,7,0,0,1-1.6,1,13.6,13.6,0,0,1-4.6,1.2,19.2,19.2,0,0,1-3.4,0l-2.6-.5a6.8,6.8,0,0,1-1.9-.8,4,4,0,0,1-1.2-1,3.8,3.8,0,0,1-1.2-2.8,5,5,0,0,1,.3-1.9,3.4,3.4,0,0,1,.9-1.4,5.4,5.4,0,0,1,1.2-.9l1.5-.5a13.1,13.1,0,0,1,4-.1,9.5,9.5,0,0,1-2.7-.9,5.7,5.7,0,0,1-1.8-1.2,4.3,4.3,0,0,1-1.3-1.4c-.3-.5-.5-1-.7-1.4a7.5,7.5,0,0,1-.5-3.6,12.5,12.5,0,0,1,.7-2.3,9.5,9.5,0,0,1,1-1.7,6.9,6.9,0,0,1,1.3-1.1,3.9,3.9,0,0,1,1.4-.8,9.6,9.6,0,0,1,3.6-.7,18.8,18.8,0,0,1,5.1.4,7.9,7.9,0,0,1,2.9,1.2,3.8,3.8,0,0,1,1.2,1.7,5,5,0,0,1,.1,1.7,2.5,2.5,0,0,1-.5,1.5,4.7,4.7,0,0,1-1,1l-1.5.7-1.5.4A14.8,14.8,0,0,1,122.3,316.5Z"/><path class="cls-22" d="M157.7,316.4a11.8,11.8,0,0,1-.4,3.4,8.8,8.8,0,0,1-1.1,2.4,6.4,6.4,0,0,1-1.7,1.6,9.3,9.3,0,0,1-2,1,13.4,13.4,0,0,1-5.4.7,9,9,0,0,1,.2,2.2,5,5,0,0,1-.2,1.8,3.3,3.3,0,0,1-.5,1.2l-.8.9a4.6,4.6,0,0,1-2.4.9,5.3,5.3,0,0,1-3.4-.5,6.5,6.5,0,0,1-2.2-1.7,11.7,11.7,0,0,1-1.5-2.7,24.7,24.7,0,0,1-.9-5.2,30.3,30.3,0,0,1,.2-4.4,24.7,24.7,0,0,1,.9-4.1,10.8,10.8,0,0,1,1.1-2.4,8.7,8.7,0,0,1,1.6-1.7,6.6,6.6,0,0,1,1.7-1.2l1.8-.7a12.7,12.7,0,0,1,4.4-.5,16.3,16.3,0,0,1,3.4.5,8.9,8.9,0,0,1,2.6,1.1,9.4,9.4,0,0,1,1.9,1.4l1.3,1.7A12.1,12.1,0,0,1,157.7,316.4Zm-10.7-.7a1.4,1.4,0,0,0-1,.5,1,1,0,0,0-.4,1,1.3,1.3,0,0,0,.4,1,1.8,1.8,0,0,0,2,0,1.4,1.4,0,0,0,0-2A1.2,1.2,0,0,0,147,315.7Z"/><path class="cls-22" d="M181,332.3l-1.8.4h-1.7a4.5,4.5,0,0,1-1.8-.7,4.6,4.6,0,0,1-1.7-1.4,13,13,0,0,1-1-1.5,4.8,4.8,0,0,1-.5-1.4,8.1,8.1,0,0,1-.2-.9,4.1,4.1,0,0,0-.2.9,5.3,5.3,0,0,1-.6,1.4,6.5,6.5,0,0,1-1,1.5,3.9,3.9,0,0,1-1.7,1.4,4.5,4.5,0,0,1-1.8.7h-1.7l-1.7-.4a3.1,3.1,0,0,1-1.3-.6l-.8-.9-.6-1.1-.3-1.1a13.7,13.7,0,0,1-.2-2.9,28.9,28.9,0,0,1,.6-4.5,21.4,21.4,0,0,1,2.6-7,21.3,21.3,0,0,1,1.6-2.5,8.1,8.1,0,0,1,2.3-2.5,11,11,0,0,1,2.3-1.3l1.7-.5h1.6l1.7.5a10.5,10.5,0,0,1,2.2,1.3,9.6,9.6,0,0,1,2.4,2.5l1.6,2.5a29.8,29.8,0,0,1,2.6,7,20.6,20.6,0,0,1,.5,4.5,13.8,13.8,0,0,1-.1,2.9,7.6,7.6,0,0,1-.4,1.1,3,3,0,0,1-.6,1.1l-.8.9A2.7,2.7,0,0,1,181,332.3Zm-8.6-12.6a1.4,1.4,0,0,0-1,.5,1.3,1.3,0,0,0-.4,1,1.9,1.9,0,0,0,.4,1,1.7,1.7,0,0,0,1,.3,1.3,1.3,0,0,0,1-.4,1.3,1.3,0,0,0,.4-.9,1.3,1.3,0,0,0-.4-1A1.2,1.2,0,0,0,172.4,319.7Z"/><path class="cls-22" d="M202.4,317.7h-2a4.2,4.2,0,0,0-1.4.6,2.2,2.2,0,0,0-.7,1.6,2.3,2.3,0,0,0,.4,1.4,2.5,2.5,0,0,0,1.3.9,4.6,4.6,0,0,0,2.5.2,8.4,8.4,0,0,1,2.8.2l1.1.4a2.7,2.7,0,0,1,1,.6l.7,1.1a8.8,8.8,0,0,1,.5,1.5,14.9,14.9,0,0,1-.2,2.1,12.6,12.6,0,0,1-.8,1.8,5.7,5.7,0,0,1-1.8,1.6,12.5,12.5,0,0,1-3.1,1,23,23,0,0,1-3.9.2,30.9,30.9,0,0,1-5.3-.9,9.6,9.6,0,0,1-3.9-2.3,10.3,10.3,0,0,1-1.4-1.5l-1.2-2.1a15.8,15.8,0,0,1-.8-2.8,12.2,12.2,0,0,1-.2-3.4,14.4,14.4,0,0,1,.9-5.1,21.2,21.2,0,0,1,1.1-2.1,13.5,13.5,0,0,1,1.6-1.9,14.3,14.3,0,0,1,2.4-1.6,11.9,11.9,0,0,1,3.2-1.2,22,22,0,0,1,7.2-.2,11.2,11.2,0,0,1,3.8,1.5,4.6,4.6,0,0,1,1.5,1.6l.4.9a3.6,3.6,0,0,1,.2,1.1,2.8,2.8,0,0,1,0,1.3,4.4,4.4,0,0,1-.5,1.5,2.8,2.8,0,0,1-1.1,1.3,4.8,4.8,0,0,1-1.6.8A6.3,6.3,0,0,1,202.4,317.7Z"/><path class="cls-22" d="M210.7,325.5a14.8,14.8,0,0,1-.3-3.1v-3.2c0-1.1.1-2.3.1-3.4a11.2,11.2,0,0,1,.9-3.9,6.4,6.4,0,0,1,.8-1.4,4.5,4.5,0,0,1,1.1-1.3l1.5-.9a6.4,6.4,0,0,1,2-.3,4.7,4.7,0,0,1,2.6.8l1,.8a12.5,12.5,0,0,1,.9,1.2,7.5,7.5,0,0,1,.8,1.8,11.9,11.9,0,0,1,.5,2.2,38,38,0,0,1,.3,4.6v3.9q-.2,1.9-.3,3.6a12.6,12.6,0,0,1-.9,3.1l-.7,1.1-1.1.9a3.3,3.3,0,0,1-1.3.7,4.8,4.8,0,0,1-1.8.3,4.1,4.1,0,0,1-1.9-.4,5.3,5.3,0,0,1-1.5-.8l-1.1-1.2a9.1,9.1,0,0,1-.7-1.4A10.6,10.6,0,0,1,210.7,325.5Z"/><path class="cls-22" d="M237.8,308a12.5,12.5,0,0,1,3.6.5,10.5,10.5,0,0,1,2.8,1.4,7.3,7.3,0,0,1,2,1.9,10.2,10.2,0,0,1,1.4,2.2,17.6,17.6,0,0,1,1.4,5.9,18.1,18.1,0,0,1-.5,4.3,17.5,17.5,0,0,1-1.3,3.3,8.4,8.4,0,0,1-1.8,2.3,14,14,0,0,1-2,1.6,13,13,0,0,1-5.6,1.6,13.4,13.4,0,0,1-4.2-.5,12.6,12.6,0,0,1-3.1-1.3,11.1,11.1,0,0,1-2.3-1.9,10.7,10.7,0,0,1-1.5-2.2,13.9,13.9,0,0,1-1.5-5.9,16.5,16.5,0,0,1,.5-4.7,14.2,14.2,0,0,1,1.4-3.5,11.4,11.4,0,0,1,2-2.3,7.9,7.9,0,0,1,2.4-1.5A12.7,12.7,0,0,1,237.8,308Zm-.6,11.2a1.4,1.4,0,0,0-1,.5,1.3,1.3,0,0,0-.4,1c.1.5.2.8.5,1a1.2,1.2,0,0,0,.9.3,1.7,1.7,0,0,0,1-.3,1.4,1.4,0,0,0,0-2A1.1,1.1,0,0,0,237.2,319.2Z"/><path class="cls-22" d="M98.2,361.5a29.5,29.5,0,0,1,3.9.8l2.8,1.2a10.1,10.1,0,0,1,2,1.4l1.3,1.5a8.1,8.1,0,0,1,1.2,3.7,9.6,9.6,0,0,1-.5,3.1,7.6,7.6,0,0,1-1.1,2.4,6.9,6.9,0,0,1-1.7,1.7l-1.8,1.1a13.7,13.7,0,0,1-5.1,1.3,24,24,0,0,1-3.8,0,17.2,17.2,0,0,1-2.9-.5l-2.1-.9L89,377.2a4.6,4.6,0,0,1-1.3-3.1,6.9,6.9,0,0,1,.3-2.2,5.6,5.6,0,0,1,1-1.5,7.1,7.1,0,0,1,1.4-1l1.6-.6a16.5,16.5,0,0,1,4.5-.1,11.7,11.7,0,0,1-3-1,7.7,7.7,0,0,1-2-1.3,6.7,6.7,0,0,1-1.4-1.6,7.2,7.2,0,0,1-1.3-5.6,6.1,6.1,0,0,1,.7-2.5,6.8,6.8,0,0,1,1.1-1.9,5.7,5.7,0,0,1,1.4-1.3,4.8,4.8,0,0,1,1.6-.8,10.2,10.2,0,0,1,4-.8,18.9,18.9,0,0,1,5.7.4,6.8,6.8,0,0,1,3.2,1.4,3.2,3.2,0,0,1,1.4,1.9,6.1,6.1,0,0,1,.1,1.9,2.8,2.8,0,0,1-.5,1.6,13.6,13.6,0,0,1-1.2,1.2l-1.6.7a5.8,5.8,0,0,1-1.8.4A14.5,14.5,0,0,1,98.2,361.5Z"/><path class="cls-22" d="M124.1,351.7l3.8.3,2.8.6,1.9.8a4.8,4.8,0,0,1,1.3.9,3.4,3.4,0,0,1,1.1,2.4,5.9,5.9,0,0,1-.4,2,5.3,5.3,0,0,1-1.2,1.4,4.2,4.2,0,0,1-1.6.9,7,7,0,0,1-1.9.6,21.8,21.8,0,0,1-5.2.3,9.9,9.9,0,0,1,3.3,1,4.6,4.6,0,0,1,1.6,1.4,3.3,3.3,0,0,1,.4,1.7,3.1,3.1,0,0,1-.6,1.9,3.7,3.7,0,0,1-1.3,1.2,4.6,4.6,0,0,1-1.4.7l-.8.2,3.1.2,2.4.6a6,6,0,0,1,1.6.8l1.1.9a3.9,3.9,0,0,1,1,2.5,3.8,3.8,0,0,1-.6,1.6,3.4,3.4,0,0,1-1.2,1.2l-1.6.8-1.9.6a25.5,25.5,0,0,1-5.1.6,22.4,22.4,0,0,1-3.8-.2l-2.8-.6-2.2-.9a9.7,9.7,0,0,1-1.5-1.1,5.1,5.1,0,0,1-1.7-2.9,30.8,30.8,0,0,1-.6-5.4c0-1.9,0-3.6.1-5.2a51.4,51.4,0,0,1,.6-5.5,6.3,6.3,0,0,1,.8-2.3A11.5,11.5,0,0,1,115,354a11.8,11.8,0,0,1,1.9-1.1,6.8,6.8,0,0,1,2-.7A17,17,0,0,1,124.1,351.7Z"/><path class="cls-22" d="M154.6,368.6a4.8,4.8,0,0,1-1.3-.9,6.9,6.9,0,0,1-.4-1,3.4,3.4,0,0,1,.1-1,2.1,2.1,0,0,1,1.3-1.1l2.3-.4h2.7l2.4.2,1.1.3.8.4.6.6a3.3,3.3,0,0,1,.5,1.2,7.5,7.5,0,0,1,.4,1.6,11,11,0,0,1,.2,1.8c0,.7.1,1.3.1,1.9a39.6,39.6,0,0,1-.3,4.7,4.4,4.4,0,0,1-.7,2.5,5,5,0,0,1-1.4,1.2,4.1,4.1,0,0,1-1.9.5,6.3,6.3,0,0,1-3.2-.8,2.9,2.9,0,0,1-1-1.2,3.6,3.6,0,0,1-.4-1.9,3.6,3.6,0,0,1-1.3,1.1,4.8,4.8,0,0,1-1.9.9,9.2,9.2,0,0,1-2.6.5,12.7,12.7,0,0,1-3.3-.2,12.6,12.6,0,0,1-5-2.2l-1.8-1.8a7,7,0,0,1-1.5-2.4,13.3,13.3,0,0,1-1.2-3.2,27.2,27.2,0,0,1-.4-4.2,16.4,16.4,0,0,1,2.2-8,18.1,18.1,0,0,1,1.8-2.3,12.9,12.9,0,0,1,2.5-2,21.6,21.6,0,0,1,3.4-1.6,18.3,18.3,0,0,1,4.7-.5l2.1.2,2.2.6,2.2,1.1a10.6,10.6,0,0,1,2,1.7,4.2,4.2,0,0,1,1,1.7,7.8,7.8,0,0,1,.4,1.9,5.3,5.3,0,0,1-.6,2.3,3.2,3.2,0,0,1-1.4,1.4,4.1,4.1,0,0,1-2.1.5,7.8,7.8,0,0,1-3.3-.7,8,8,0,0,0-2.6-.2,3.2,3.2,0,0,0-1.7.9,3.3,3.3,0,0,0-.8,2.6,4.1,4.1,0,0,0,.6,2.3,1.3,1.3,0,0,0,.6.7,1.9,1.9,0,0,0,.9.5l1.3.2Z"/><path class="cls-22" d="M174.5,351.7a4.9,4.9,0,0,1,2.5.8,4.8,4.8,0,0,1,1.8,1.7,6.6,6.6,0,0,1,.8,3.4c0,1.2-.1,2.2-.1,3.2a22.6,22.6,0,0,0,.1,2.7,4.3,4.3,0,0,0,.5,1.8,1.1,1.1,0,0,0,2,0,6.5,6.5,0,0,0,.5-1.8,24.2,24.2,0,0,0,0-2.7v-3.2a5.9,5.9,0,0,1,.1-1.9l.6-1.4a5.3,5.3,0,0,1,.9-1.1,2.7,2.7,0,0,1,1-.6,6.1,6.1,0,0,1,2.8-.6,6.2,6.2,0,0,1,3.2.5,7.9,7.9,0,0,1,1.9,1.5,6.3,6.3,0,0,1,1.2,2.3,29.5,29.5,0,0,1,.7,5.7,35.8,35.8,0,0,1-.3,4.9,32.6,32.6,0,0,1-.9,4.7,12.2,12.2,0,0,1-2.4,4.3,11.7,11.7,0,0,1-1.6,1.5,7.4,7.4,0,0,1-2.1,1.3l-2.8,1a17.9,17.9,0,0,1-3.4.3l-2.9-.2-2.4-.7a6.1,6.1,0,0,1-2-.9,5.6,5.6,0,0,1-1.5-1,10.6,10.6,0,0,1-2.5-2.7,12.3,12.3,0,0,1-1.2-2.6c-.3-1-.5-1.9-.7-2.8a29.3,29.3,0,0,1-.5-2.9c0-.9-.1-1.8-.1-2.6a40.3,40.3,0,0,1,.4-6,7.5,7.5,0,0,1,1.5-3.6,6,6,0,0,1,2.2-1.8A5.9,5.9,0,0,1,174.5,351.7Z"/><path class="cls-22" d="M220.3,359.2a12.3,12.3,0,0,1,.1,3.8,15,15,0,0,1-.7,2.7,9.9,9.9,0,0,1-1.3,2.3,15.3,15.3,0,0,1,2.2,2.3,7.8,7.8,0,0,1,1.2,2.1,4.5,4.5,0,0,1,.4,1.8,4.2,4.2,0,0,1-.1,1.6,6,6,0,0,1-4.7,4.2,4.5,4.5,0,0,1-2.5-.7,8.3,8.3,0,0,1-2.1-1.7l-1.6-2.1-1.1-2-.4-.9a8.5,8.5,0,0,1,.1,2.2l-.3,1.8a3.5,3.5,0,0,1-.7,1.2l-.9.9a5.2,5.2,0,0,1-2.5,1.1,5.8,5.8,0,0,1-3.3-.5,8.3,8.3,0,0,1-2-1.6,7.9,7.9,0,0,1-1.3-2.6,26.6,26.6,0,0,1-1.2-6.3,25.7,25.7,0,0,1,.1-4.9,19.1,19.1,0,0,1,.8-4.4,10.2,10.2,0,0,1,1.1-2.8,10.8,10.8,0,0,1,1.6-2,7.3,7.3,0,0,1,1.8-1.4,8.8,8.8,0,0,1,2-.9,11.9,11.9,0,0,1,4.7-.6,14.2,14.2,0,0,1,3.1.3,8.5,8.5,0,0,1,2.4.9,6.2,6.2,0,0,1,1.9,1.2,5.3,5.3,0,0,1,1.3,1.3A10,10,0,0,1,220.3,359.2Zm-10.6,2.7a1.6,1.6,0,0,0-1.1.5,1.3,1.3,0,0,0-.5,1.1,2.3,2.3,0,0,0,.5,1.2,2,2,0,0,0,1.1.3,1.8,1.8,0,0,0,1.1-.4,1.4,1.4,0,0,0,.4-1.1,1.5,1.5,0,0,0-.4-1.1A1.3,1.3,0,0,0,209.7,361.9Z"/><path class="cls-22" d="M238.2,352a13.1,13.1,0,0,1,4.1.6,8.1,8.1,0,0,1,3.1,1.5,8.8,8.8,0,0,1,2.2,2.1,15.8,15.8,0,0,1,1.5,2.4,20,20,0,0,1,1.6,6.6,17.7,17.7,0,0,1-.6,4.9,15,15,0,0,1-1.4,3.6,13.7,13.7,0,0,1-2,2.6,9.1,9.1,0,0,1-2.3,1.7,14.1,14.1,0,0,1-6.2,1.9,16.8,16.8,0,0,1-4.7-.6,15.2,15.2,0,0,1-3.4-1.5,8.7,8.7,0,0,1-2.5-2.1,11.8,11.8,0,0,1-1.7-2.4,16.9,16.9,0,0,1-1.8-6.6,20.9,20.9,0,0,1,.6-5.3,16.7,16.7,0,0,1,1.6-3.8,12.5,12.5,0,0,1,2.3-2.7,10.1,10.1,0,0,1,2.6-1.6A14.4,14.4,0,0,1,238.2,352Zm-.6,12.5a2.1,2.1,0,0,0-1.2.5,1.7,1.7,0,0,0-.4,1.1c.1.6.2,1,.5,1.2a2,2,0,0,0,1.1.3,1.5,1.5,0,0,0,1.1-.4,1.4,1.4,0,0,0,.4-1.1,1.7,1.7,0,0,0-.4-1.1A1.3,1.3,0,0,0,237.6,364.5Z"/><path class="cls-22" d="M520.4,313.4a3.7,3.7,0,0,1-2.3-3,13.4,13.4,0,0,1,0-4.9,28.3,28.3,0,0,1,1.3-5.6c.7-2,1.3-3.7,2-5.2h-.2a52,52,0,0,0-3.1,4.6,54,54,0,0,0-3.1,5.6,59.1,59.1,0,0,0-3.3,7.8l-.5.5-.5.4h-.8l-1.1-.2-.7-.4a4.5,4.5,0,0,1-1.8-3.2,15.7,15.7,0,0,1,.2-4.8,35.8,35.8,0,0,1,1.4-5.4c.6-1.9,1.2-3.5,1.8-4.9h-.1a43.3,43.3,0,0,0-3.4,5c-1,1.7-2.1,3.7-3.3,6.1s-2.3,5.2-3.5,8.3a.9.9,0,0,1-.3.6h-.4a5.6,5.6,0,0,1-3.8-1.8,1.2,1.2,0,0,1-.3-.9c-.1-.2-.1-.3,0-.4a17.1,17.1,0,0,1,.3-3.1c.2-1.1.5-2.3.7-3.4s.5-2.2.8-3.2.6-2,.8-2.9.5-1.3.7-2l.5-1.6a5.1,5.1,0,0,0,.4-1.1c.3-.8.5-1.6.8-2.3a18.2,18.2,0,0,1,.8-1.9c.2-.6.5-1.2.7-1.7v-.2l.2-.4.5-.6a.8.8,0,0,1,.8-.1,6.8,6.8,0,0,1,1.7.7,9.4,9.4,0,0,1,2,1.6c0,.1.1.2.1.3s.1.2.2.4a4.3,4.3,0,0,1,.1.5c0,.3-.1.5-.1.8a2,2,0,0,1-.5.9v.2c-.1.1-.2.5-.5,1l-.7,1.4a6.1,6.1,0,0,1-.5,1.2l-.4,1.1-.7,1.8c.8-1.4,1.6-2.8,2.5-4.2a21.4,21.4,0,0,1,2.8-3.6,10.5,10.5,0,0,1,2.7-2.2,2.6,2.6,0,0,1,2.4-.1l1.7.9a9,9,0,0,1,1.9,1.6l.3.8v.9a7.7,7.7,0,0,1-.6,1.5l-.6,1.1-1,1.8c-.4.7-.7,1.5-1.1,2.3a27.2,27.2,0,0,0-1.1,2.5l2.8-5.2a42.9,42.9,0,0,1,3.2-4.7,18.3,18.3,0,0,1,3.2-3.1,2.8,2.8,0,0,1,3-.4l1.6.9a7,7,0,0,1,1.9,1.6,1.1,1.1,0,0,1,.3.8,1.4,1.4,0,0,1,0,.9,3.7,3.7,0,0,1-.5,1.5l-.9,1.6c-.4.8-.9,1.6-1.3,2.6s-1,2-1.4,3a28.5,28.5,0,0,0-1.1,3,11.2,11.2,0,0,0-.3,2.4,1.2,1.2,0,0,0,.8,1.2,2.5,2.5,0,0,0,1.8-.5,12.3,12.3,0,0,0,1.9-2,21.3,21.3,0,0,0,1.6-2.5,19,19,0,0,1,1.1-2.1l.4-.6a1.7,1.7,0,0,1,1.3-.4l.6.3a.9.9,0,0,1,.1.5,2.5,2.5,0,0,1-.1.8l-1.3,2.5-1.9,3.2a24.3,24.3,0,0,1-2.4,3.2,8.7,8.7,0,0,1-2.6,2.2,5.2,5.2,0,0,1-1.6.6h-1.5A3.3,3.3,0,0,1,520.4,313.4Z"/><path class="cls-22" d="M531.5,300.1a24.6,24.6,0,0,1,3.2-6.1,15.3,15.3,0,0,1,3.6-3.6,7.9,7.9,0,0,1,3.6-1.5,7.8,7.8,0,0,1,3.1.3,4.5,4.5,0,0,1,1.8,1.5,5.7,5.7,0,0,1,.7,2.2c0,.2.1.5.1.8v1c-.1.7-.3,1.6-.6,2.8a11.5,11.5,0,0,1-1.6,3.4,13.2,13.2,0,0,1-3.4,3.2,14.6,14.6,0,0,1-5.9,2.2,6.9,6.9,0,0,0,.2,2.5,2.6,2.6,0,0,0,1.7,1.7h.8a7.5,7.5,0,0,0,2.6-.1,8.5,8.5,0,0,0,2.2-.9l1.8-1.3,1.3-1.3.3-.3.3-.3c.3-.4.4-.7.5-.7l1.5-2.3c.4-.8.8-1.5,1-2l.4-.6a1.7,1.7,0,0,1,1.3-.5.9.9,0,0,1,.6.4.7.7,0,0,1,.1.5,2,2,0,0,1-.1.7l-.9,1.7a16.4,16.4,0,0,1-1.2,2.2,19,19,0,0,1-1.4,2.4l-.4.4-.5.7a31.7,31.7,0,0,1-3.7,3.4,9,9,0,0,1-5.1,1.8h-2.1a9.9,9.9,0,0,1-4.3-1.3,5.6,5.6,0,0,1-2.2-2.4,6.1,6.1,0,0,1-.8-2.7,10.1,10.1,0,0,1,.1-3h0A24,24,0,0,1,531.5,300.1Zm6.3,1.2-.5,1.1-.3.8a8.6,8.6,0,0,0,3.4-1.2,17,17,0,0,0,2.4-2.2,11.8,11.8,0,0,0,1.4-2.3,4.5,4.5,0,0,0,.6-1.9c.1-.9,0-1.5-.3-1.6l-.5-.3-1,.3a4.6,4.6,0,0,0-1.4,1,12.4,12.4,0,0,0-1.7,2.3A20.7,20.7,0,0,0,537.8,301.3Z"/><path class="cls-22" d="M556.2,301.7l3.1-5a42.1,42.1,0,0,1,3.4-4.4,21.3,21.3,0,0,1,3.3-3,3,3,0,0,1,3-.3l1.7.9a5.5,5.5,0,0,1,1.8,1.6,2,2,0,0,1,.4.8,3.4,3.4,0,0,1-.1.9,3.7,3.7,0,0,1-.5,1.5l-.9,1.6-1.3,2.6c-.5,1-1,2-1.4,3a26.3,26.3,0,0,0-1,3,11.2,11.2,0,0,0-.3,2.4,1.2,1.2,0,0,0,.8,1.2,2.8,2.8,0,0,0,1.8-.5,12,12,0,0,0,1.8-2,21.3,21.3,0,0,0,1.6-2.5,22.8,22.8,0,0,0,1.1-2.1l.4-.6a1.7,1.7,0,0,1,1.3-.4c.5.1.8.3.8.8a3.1,3.1,0,0,1-.2.8c-.3.6-.7,1.5-1.3,2.5a26.9,26.9,0,0,1-1.9,3.2,37.1,37.1,0,0,1-2.3,3.2,8.7,8.7,0,0,1-2.6,2.2,5.2,5.2,0,0,1-1.6.6h-1.5a3.3,3.3,0,0,1-1.5-.3,3.7,3.7,0,0,1-2.3-3,13.4,13.4,0,0,1,0-4.9,28.3,28.3,0,0,1,1.3-5.6c.6-2,1.3-3.7,1.9-5.2h-.1a30.8,30.8,0,0,0-4.2,5,64.5,64.5,0,0,0-3.8,6,84.2,84.2,0,0,0-3.7,8.4.6.6,0,0,1-.3.6h-.4a5.2,5.2,0,0,1-2.4-.7,3.6,3.6,0,0,1-1.3-1.1,1,1,0,0,1-.4-.9c-.1-.2-.1-.3,0-.4a17.6,17.6,0,0,1,.4-3.1l.6-3.4c.3-1.1.5-2.2.8-3.2s.6-2,.8-2.9a15.9,15.9,0,0,0,.7-2,13.8,13.8,0,0,1,.6-1.6,3,3,0,0,1,.3-1.1c.3-.8.6-1.6.8-2.3l.8-1.9c.3-.6.5-1.2.7-1.7s0-.1.1-.2a1,1,0,0,1,.1-.4l.5-.6a.8.8,0,0,1,.8-.1l1.7.7a7,7,0,0,1,1.9,1.6l.3.3c0,.1.1.2.1.4a.7.7,0,0,1,.1.5,4.1,4.1,0,0,1-.5,1.7c0,.1,0,.1-.1.1h0a4.3,4.3,0,0,0-.5,1l-.6,1.4-.6,1.2-.5,1.1-.7,2.1C556.7,300.1,556.5,300.9,556.2,301.7Z"/><path class="cls-22" d="M591.8,301c-.6,1.2-1.3,2.6-2.2,4.2a22.1,22.1,0,0,1-3,4.5,15.2,15.2,0,0,1-3.8,3.4,5.5,5.5,0,0,1-4.5.5,4.1,4.1,0,0,1-2.2-1.3,5.4,5.4,0,0,1-1.3-2.2,12.3,12.3,0,0,1-.7-2.9v-3a22,22,0,0,1,.6-3.7c.3-1.1.7-2.2,1-3.1a25.5,25.5,0,0,1,1.3-2.9,17.7,17.7,0,0,1,2.7-3.9,10.2,10.2,0,0,1,3-2.1,3.8,3.8,0,0,1,3.7.4,4.5,4.5,0,0,1,1.7-1.1,3.4,3.4,0,0,1,2-.2,3.2,3.2,0,0,1,2.4,1.4,5.2,5.2,0,0,1,1,2.7,18.2,18.2,0,0,1,0,3.3c-.2,1.2-.3,2.2-.5,2.9a10.4,10.4,0,0,0,3.5-1.7,15.8,15.8,0,0,0,2.5-1.9l.7-.5c.2-.1.3-.2.5-.1s.2.3.2.7a1.4,1.4,0,0,1,0,.9,3.4,3.4,0,0,1-.6,1.5,13.8,13.8,0,0,1-3.4,2.6A12.6,12.6,0,0,1,591.8,301Zm-12.1,3.1a9.1,9.1,0,0,0-.5,3.3,3.7,3.7,0,0,0,.3,1.7,1.3,1.3,0,0,0,.9.9,2.3,2.3,0,0,0,2.1-.4,8.6,8.6,0,0,0,2.2-2.1,27.9,27.9,0,0,0,2-3.1c.6-1.2,1.1-2.4,1.6-3.7a6.6,6.6,0,0,1-2-1.1,5.9,5.9,0,0,1-1.7-2.5,6.7,6.7,0,0,1-.4-3.1,11.7,11.7,0,0,0-1.8,2.6A34.5,34.5,0,0,0,581,300C580.5,301.3,580.1,302.7,579.7,304.1Zm7.3-9.7a3.5,3.5,0,0,0,.1,1.5l.6,1.1.9.7.7.3a11.3,11.3,0,0,0,.7-5,1.6,1.6,0,0,0-.6-.8,1.6,1.6,0,0,0-1-.1,1.6,1.6,0,0,0-.8.6A3.4,3.4,0,0,0,587,294.4Z"/><path class="cls-22" d="M596.4,308.6c0,.1.1.1.1.2l-.2.5a.5.5,0,0,0-.2.4c0,.2-.1.4-.1.6a.8.8,0,0,0,.2.5c.1.2.4.3.7.4s.8,0,1-.3.4-.5.5-1a3.8,3.8,0,0,0,0-1.5c0-.5-.1-1.1-.1-1.6a27.9,27.9,0,0,0-.4-3.2l-.3-2.9v-.9l-1.2,2.2a9.9,9.9,0,0,1-.9,1.5l-.4.6-.6.2a.7.7,0,0,1-.6-.4,2.5,2.5,0,0,1-.4-.7.7.7,0,0,1,.1-.5,1.1,1.1,0,0,1,.3-.7l1-2.4a15.9,15.9,0,0,0,1.2-2.7l1.1-2.4a12,12,0,0,0,.6-1.7,20.3,20.3,0,0,1,.4-2.9c.1-.9.3-1.4.6-1.6a5.8,5.8,0,0,1,1.4-.8l1.8-.5,2.1-.2H606a1,1,0,0,1,.6.5,1.5,1.5,0,0,1,.2.8,4.5,4.5,0,0,1-.4,1.6,12.7,12.7,0,0,0-.7,2.1c-.2.9-.4,1.8-.6,2.9a23.3,23.3,0,0,0-.1,6.8c.2,1.2.4,2.5.6,4a12.9,12.9,0,0,1-.1,4.4,6.3,6.3,0,0,1-1.9,3.6,7.1,7.1,0,0,1-4.8,1.7,8.4,8.4,0,0,1-3.4-.5,4.3,4.3,0,0,1-2-1.6,4.2,4.2,0,0,1-.4-3.3l.3-.8.3-.7.6-.6h1l.7.4A1.2,1.2,0,0,1,596.4,308.6Z"/><path class="cls-22" d="M417.6,367.3a24.6,24.6,0,0,1,3.2-6.1,15.3,15.3,0,0,1,3.6-3.6,7.9,7.9,0,0,1,3.6-1.5,7.8,7.8,0,0,1,3.1.3,3.8,3.8,0,0,1,1.6,1.1,5.1,5.1,0,0,1,.7,1.7,5.7,5.7,0,0,1,.3,1.8,7.8,7.8,0,0,1-.2,1.6c0,.3-.3.5-.7.7l-.9.4h-.4c0-.1-.1-.1-.1-.2a3.1,3.1,0,0,0-.2-1.9c-.3-.3-.5-.5-.7-.5h-.7a4.5,4.5,0,0,0-1.4.7,12.5,12.5,0,0,0-2,2.3,29.7,29.7,0,0,0-2.5,4.6,11.4,11.4,0,0,0-1.1,2.8,6.2,6.2,0,0,0-.4,1.4,5.8,5.8,0,0,0-.2,1.9,4.1,4.1,0,0,0,.5,1.8,2.3,2.3,0,0,0,1.4,1.3h.8a7.5,7.5,0,0,0,2.6-.1,8.5,8.5,0,0,0,2.2-.9l1.8-1.3,1.3-1.3.5-.6.3-.4.3-.3,1.5-2.3c.4-.8.8-1.5,1-2l.4-.6a1.7,1.7,0,0,1,1.3-.5.9.9,0,0,1,.6.4.7.7,0,0,1,.1.5,2,2,0,0,1-.1.7l-2.1,3.9a19,19,0,0,1-1.4,2.4l-.4.4-.5.7a31.7,31.7,0,0,1-3.7,3.4,9,9,0,0,1-5.1,1.8h-2.1a9.9,9.9,0,0,1-4.3-1.3,5.6,5.6,0,0,1-2.2-2.4,6.1,6.1,0,0,1-.8-2.7,10.1,10.1,0,0,1,.1-3h0A24,24,0,0,1,417.6,367.3Z"/><path class="cls-22" d="M453.7,368.2c-.6,1.2-1.3,2.6-2.2,4.2a22.1,22.1,0,0,1-3,4.5,15.2,15.2,0,0,1-3.8,3.4,5.4,5.4,0,0,1-4.5.5,4.1,4.1,0,0,1-2.2-1.3,5.4,5.4,0,0,1-1.3-2.2,12.4,12.4,0,0,1-.6-2.9,15,15,0,0,1,0-3,22,22,0,0,1,.6-3.7c.3-1.1.6-2.2.9-3.1a25.5,25.5,0,0,1,1.3-2.9,15,15,0,0,1,2.8-3.9,8.6,8.6,0,0,1,2.9-2.1,3.8,3.8,0,0,1,3.7.4A4.5,4.5,0,0,1,450,355a3.4,3.4,0,0,1,2-.2,3,3,0,0,1,2.4,1.4,5.2,5.2,0,0,1,1,2.7,12.2,12.2,0,0,1,0,3.3c-.2,1.2-.3,2.2-.5,2.9a11.9,11.9,0,0,0,3.6-1.7,14.2,14.2,0,0,0,2.4-1.9l.7-.5c.2-.1.4-.2.5-.1s.2.3.2.7a1.4,1.4,0,0,1,0,.9,3.4,3.4,0,0,1-.6,1.5,13.8,13.8,0,0,1-3.4,2.6A12.6,12.6,0,0,1,453.7,368.2Zm-12.1,3.1a9.1,9.1,0,0,0-.5,3.3,3.7,3.7,0,0,0,.3,1.7,1.3,1.3,0,0,0,.9.9,2.3,2.3,0,0,0,2.1-.4,8.6,8.6,0,0,0,2.2-2.1,27.9,27.9,0,0,0,2-3.1c.6-1.2,1.1-2.4,1.6-3.7a6.6,6.6,0,0,1-2-1.1,5.9,5.9,0,0,1-1.7-2.5,6.7,6.7,0,0,1-.4-3.1,11.7,11.7,0,0,0-1.8,2.6,34.5,34.5,0,0,0-1.4,3.4C442.4,368.5,442,369.9,441.6,371.3Zm7.3-9.7a3.5,3.5,0,0,0,.1,1.5l.6,1.1.9.7.7.3a11.3,11.3,0,0,0,.7-5,1.6,1.6,0,0,0-.6-.8,1.4,1.4,0,0,0-.9-.1,1.5,1.5,0,0,0-.9.6A3.4,3.4,0,0,0,448.9,361.6Z"/><path class="cls-22" d="M461.9,368.9c.9-1.7,2-3.3,3.1-5a31.9,31.9,0,0,1,3.4-4.4,14.9,14.9,0,0,1,3.3-3,3,3,0,0,1,3-.3l1.7.9a8.6,8.6,0,0,1,1.8,1.6,1.1,1.1,0,0,1,.3.8,1.4,1.4,0,0,1,0,.9,7.7,7.7,0,0,1-.6,1.5l-.9,1.6-1.3,2.6-1.3,3a15,15,0,0,0-1,3,5.3,5.3,0,0,0-.3,2.4,1.1,1.1,0,0,0,.7,1.2,2.5,2.5,0,0,0,1.8-.5,9.1,9.1,0,0,0,1.9-2c.5-.8,1.1-1.6,1.6-2.5l1.1-2.1c0-.2.2-.4.4-.6a1.7,1.7,0,0,1,1.3-.4c.5.1.7.3.7.8a2.5,2.5,0,0,1-.1.8c-.3.6-.7,1.5-1.3,2.5a28,28,0,0,1-2,3.2,23.5,23.5,0,0,1-2.3,3.2,8.4,8.4,0,0,1-2.5,2.2,5.8,5.8,0,0,1-1.7.6,7.5,7.5,0,0,1-1.5,0,4,4,0,0,1-1.5-.3,3.6,3.6,0,0,1-2.2-3,15.8,15.8,0,0,1-.1-4.9,28.7,28.7,0,0,1,1.4-5.6c.6-2,1.2-3.7,1.8-5.2h0a26.4,26.4,0,0,0-4.2,5,48.7,48.7,0,0,0-3.8,6,66.1,66.1,0,0,0-3.7,8.4.9.9,0,0,1-.3.6h-.4a5.2,5.2,0,0,1-2.4-.7,4,4,0,0,1-1.4-1.1,1.3,1.3,0,0,1-.4-.9v-.4c.1-1,.2-2,.4-3.1s.4-2.3.7-3.4a29.9,29.9,0,0,1,.8-3.2c.3-1.1.5-2,.8-2.9a15.9,15.9,0,0,1,.7-2l.5-1.6.4-1.1c.3-.8.5-1.6.8-2.3a18.2,18.2,0,0,1,.8-1.9l.6-1.7c0-.1.1-.1.1-.2l.2-.4a1.3,1.3,0,0,1,.5-.6.6.6,0,0,1,.7-.1,6.8,6.8,0,0,1,1.7.7,7.4,7.4,0,0,1,2,1.6c0,.1.1.2.2.3l.2.4v.5a3,3,0,0,1-.5,1.7h0a.1.1,0,0,1-.1.1,6.4,6.4,0,0,0-.4,1l-.7,1.4-.6,1.2-.4,1.1-.8,2.1C462.4,367.3,462.1,368.1,461.9,368.9Z"/><path class="cls-22" d="M489.5,357.9c-.8,1.9-1.6,3.9-2.3,6.1s-1.3,4.4-1.9,6.8a11.7,11.7,0,0,0-.3,3.5h.1v.2a1.4,1.4,0,0,0,.8,1.1,2.4,2.4,0,0,0,1.7-.5,9.1,9.1,0,0,0,1.9-2c.5-.8,1.1-1.6,1.6-2.5a22.8,22.8,0,0,0,1.1-2.1l.5-.6a1.5,1.5,0,0,1,1.2-.4c.5.1.8.3.8.8a3.1,3.1,0,0,1-.2.8l-1.8,3.5a41.7,41.7,0,0,1-2.9,4.4l-.8.9a10.6,10.6,0,0,1-1.5,1.5.1.1,0,0,0-.1.1.2.2,0,0,0-.2.2l-1.1.5-1.4.4h-1a3.3,3.3,0,0,1-2.2-1.6,10.9,10.9,0,0,1-1.1-2.7,17.8,17.8,0,0,1-.4-3.5,9.2,9.2,0,0,1-.1-1.6c0-.5.1-1,.1-1.6a28.7,28.7,0,0,1,.5-3.1,16.3,16.3,0,0,1,.7-2.8,25,25,0,0,1,.7-2.6c.9-2.7,1.9-5.3,2.9-7.6s2-4.6,3-6.7H467.6c-.5,0-.9-.1-1-.4a.8.8,0,0,1-.2-.4,3.5,3.5,0,0,1,.2-2.3,4,4,0,0,1,1.4-1.5,6.5,6.5,0,0,1,2.1-.7h2.5l8.8.3,8.7.4c.9-1.6,1.6-3,2.4-4.2a27,27,0,0,1,1.9-3.2,19.6,19.6,0,0,1,1.7-2.6,3.8,3.8,0,0,1,.9-.9,2,2,0,0,1,.8-.4,1.2,1.2,0,0,1,1,.2l1.2,1.1a7.9,7.9,0,0,1,1.4,1.7,6.8,6.8,0,0,1,.7,2,3.3,3.3,0,0,1-.3,2l-1.3,1.8-2.2,2.9,6.5.3,8.8.3,10,.3,10,.3,8.9.2,6.7.2h.7l.9.2.8.3a.5.5,0,0,1,.3.5c0,.2-.2.4-.6.5l-1.6.4h-3.1l-6.7.2H495.4a55,55,0,0,0-3,5C491.4,353.6,490.5,355.7,489.5,357.9Z"/><path class="cls-22" d="M518.7,367.6c.5.2.8.5.8.9a2.5,2.5,0,0,1-.2.7c-.3.6-.7,1.5-1.3,2.6l-1.9,3.2a36.5,36.5,0,0,1-2.4,3.1,8.4,8.4,0,0,1-2.5,2.2,2.9,2.9,0,0,1-1.7.6H508l-1.5-.3a4.1,4.1,0,0,1-2-2.1,7.4,7.4,0,0,1-.5-3.4,13.7,13.7,0,0,1-3.8,4.1,5.7,5.7,0,0,1-3.9,1.4,6.1,6.1,0,0,1-2.6-.8,4.5,4.5,0,0,1-2.1-2.2,10.9,10.9,0,0,1-.6-4,21.9,21.9,0,0,1,1.6-6.4,21.7,21.7,0,0,1,3.2-6.1,15.3,15.3,0,0,1,3.6-3.6,7,7,0,0,1,6.6-1.2,3.3,3.3,0,0,1,1.7,1.3,4.9,4.9,0,0,1,.8,1.8l.7-1.5.3-.6a1.2,1.2,0,0,1,.4-.8c.1-.2.3-.3.5-.5a.8.8,0,0,1,.7-.1l1.8.9a16.8,16.8,0,0,1,2.1,1.8,1.1,1.1,0,0,1,.3.8,1.4,1.4,0,0,1,0,.9,6.5,6.5,0,0,1-.5,1.5l-.9,1.6-1.4,2.6-1.3,3a28.5,28.5,0,0,0-1.1,3,11.2,11.2,0,0,0-.3,2.4,1.4,1.4,0,0,0,.8,1.2,1.8,1.8,0,0,0,1.8-.5,12,12,0,0,0,1.8-2,10,10,0,0,0,1.6-2.4l1.2-2.1c0-.2.2-.4.4-.6A1.5,1.5,0,0,1,518.7,367.6ZM505.9,366c.3-1.1.5-1.9.6-2.5a5.8,5.8,0,0,0-.1-1.5,2.8,2.8,0,0,0-.5-.8l-.4-.2h-.8a4.2,4.2,0,0,0-1.3.7,9.6,9.6,0,0,0-2,2.3,28.8,28.8,0,0,0-2.6,4.6,25.8,25.8,0,0,0-1.7,4.8,6.8,6.8,0,0,0-.1,2.4,1.3,1.3,0,0,0,1,1.1,3.2,3.2,0,0,0,2.7-1.3,24.1,24.1,0,0,0,2.5-3.5,52,52,0,0,0,2.4-5.2c0-.1.1-.1.1-.2Z"/><path class="cls-22" d="M540.9,380.6a3.7,3.7,0,0,1-2.3-3,13.4,13.4,0,0,1,0-4.9,28.3,28.3,0,0,1,1.3-5.6c.7-2,1.3-3.7,2-5.2h-.2a52,52,0,0,0-3.1,4.6,54,54,0,0,0-3.1,5.6,75.2,75.2,0,0,0-3.4,7.8l-.4.5-.5.4h-.8l-1.1-.2-.7-.4a4.5,4.5,0,0,1-1.8-3.2,15.7,15.7,0,0,1,.2-4.8,35.8,35.8,0,0,1,1.4-5.4c.6-1.9,1.2-3.5,1.8-4.9h-.1a43.3,43.3,0,0,0-3.4,5c-1,1.7-2.1,3.7-3.3,6.1a74.2,74.2,0,0,0-3.5,8.3.9.9,0,0,1-.3.6h-.4a5.6,5.6,0,0,1-3.8-1.8,1.2,1.2,0,0,1-.3-.9c-.1-.2-.1-.3,0-.4a17.1,17.1,0,0,1,.3-3.1c.2-1.1.4-2.3.7-3.4a29.9,29.9,0,0,1,.8-3.2c.3-1.1.6-2,.8-2.9a15.9,15.9,0,0,1,.7-2l.5-1.6a5.1,5.1,0,0,0,.4-1.1c.3-.8.5-1.6.8-2.3a18.2,18.2,0,0,1,.8-1.9l.6-1.7c0-.1.1-.1.1-.2l.2-.4.5-.6a.8.8,0,0,1,.8-.1,6.8,6.8,0,0,1,1.7.7,9.4,9.4,0,0,1,2,1.6c0,.1.1.2.1.3l.2.4v1.3a2,2,0,0,1-.5.9c0,.1,0,.2-.1.2l-.4,1-.7,1.4a6.1,6.1,0,0,1-.5,1.2l-.4,1.1-.7,1.8c.8-1.4,1.6-2.8,2.5-4.2a21.4,21.4,0,0,1,2.8-3.6,10.5,10.5,0,0,1,2.7-2.2,2.6,2.6,0,0,1,2.4-.1l1.7.9a6.7,6.7,0,0,1,1.8,1.6,1.1,1.1,0,0,1,.3.8,1.4,1.4,0,0,1,0,.9,3.7,3.7,0,0,1-.5,1.5l-.6,1.1-1,1.8c-.4.7-.7,1.5-1.1,2.3a27.2,27.2,0,0,0-1.1,2.5l2.8-5.2a42.9,42.9,0,0,1,3.2-4.7,18.3,18.3,0,0,1,3.2-3.1,2.8,2.8,0,0,1,3-.4l1.6.9a7,7,0,0,1,1.9,1.6l.3.8v.9a6.5,6.5,0,0,1-.5,1.5l-.9,1.6c-.4.8-.9,1.6-1.3,2.6s-1,2-1.4,3a28.5,28.5,0,0,0-1.1,3,11.2,11.2,0,0,0-.3,2.4,1.2,1.2,0,0,0,.8,1.2,2.5,2.5,0,0,0,1.8-.5,8.8,8.8,0,0,0,1.8-2,22,22,0,0,0,1.7-2.5,19,19,0,0,1,1.1-2.1l.4-.6a1.7,1.7,0,0,1,1.3-.4l.6.3a.9.9,0,0,1,.1.5,2.5,2.5,0,0,1-.1.8l-1.3,2.5-1.9,3.2a24.3,24.3,0,0,1-2.4,3.2,8.7,8.7,0,0,1-2.6,2.2,5.2,5.2,0,0,1-1.6.6,7.4,7.4,0,0,1-1.5,0A3.3,3.3,0,0,1,540.9,380.6Z"/><path class="cls-22" d="M561.5,358.7a2,2,0,0,1,.4.8,3.4,3.4,0,0,1-.1.9,3.7,3.7,0,0,1-.5,1.5l-.9,1.6c-.4.8-.9,1.6-1.3,2.6s-1,2-1.4,3a28.5,28.5,0,0,0-1.1,3,11.2,11.2,0,0,0-.3,2.4,1.4,1.4,0,0,0,.9,1.2,1.7,1.7,0,0,0,1.7-.5,12,12,0,0,0,1.8-2,14.6,14.6,0,0,0,1.7-2.4,19,19,0,0,1,1.1-2.1l.4-.6a1.5,1.5,0,0,1,1.3-.5c.5.2.8.5.8.9a2.5,2.5,0,0,1-.2.7c-.3.6-.7,1.5-1.3,2.6l-1.9,3.2a35.5,35.5,0,0,1-2.3,3.1,10.2,10.2,0,0,1-2.6,2.2,2.9,2.9,0,0,1-1.7.6h-1.5l-1.4-.3a3.9,3.9,0,0,1-2-2,7.3,7.3,0,0,1-.6-3,17.6,17.6,0,0,1,.4-3.8,30.6,30.6,0,0,1,1-4.1,71.6,71.6,0,0,1,4.1-10.4,2,2,0,0,1,.4-.8l.5-.5a.9.9,0,0,1,.7-.1l1.8.9A16.8,16.8,0,0,1,561.5,358.7Zm-2.1-4.9a2.3,2.3,0,0,1-.5-2.1,5,5,0,0,1,.7-1.9,4.1,4.1,0,0,1,.7-1.1l.5-.8.5-.7.7-.8.8-.4q.3-.2.9.3l1,.9a15.8,15.8,0,0,1,1.2,1.5,6.4,6.4,0,0,1,.6,1.8,2,2,0,0,1-.2,1.7l-.9,1.2-1.5,2a1.4,1.4,0,0,1-1,.5l-1.3-.4-1.2-.8Z"/><path class="cls-22" d="M569.4,368.9l3.1-5a42.1,42.1,0,0,1,3.4-4.4,17.6,17.6,0,0,1,3.3-3,3,3,0,0,1,3-.3l1.7.9a8.6,8.6,0,0,1,1.8,1.6,2,2,0,0,1,.4.8,3.4,3.4,0,0,1-.1.9,6.5,6.5,0,0,1-.5,1.5l-.9,1.6c-.4.8-.9,1.6-1.3,2.6s-1,2-1.4,3a15,15,0,0,0-1,3,5.3,5.3,0,0,0-.3,2.4,1.2,1.2,0,0,0,.8,1.2,2.4,2.4,0,0,0,1.7-.5,9.1,9.1,0,0,0,1.9-2c.5-.8,1.1-1.6,1.6-2.5a22.8,22.8,0,0,0,1.1-2.1c0-.2.2-.4.4-.6a1.7,1.7,0,0,1,1.3-.4c.5.1.8.3.8.8a3.1,3.1,0,0,1-.2.8c-.3.6-.7,1.5-1.3,2.5l-1.9,3.2c-.8,1.1-1.5,2.2-2.3,3.2a10.2,10.2,0,0,1-2.6,2.2,5.8,5.8,0,0,1-1.7.6,7.5,7.5,0,0,1-1.5,0,4,4,0,0,1-1.5-.3,3.6,3.6,0,0,1-2.2-3,15.8,15.8,0,0,1-.1-4.9,28.7,28.7,0,0,1,1.4-5.6c.6-2,1.2-3.7,1.8-5.2h0a26.4,26.4,0,0,0-4.2,5,48.7,48.7,0,0,0-3.8,6,84.2,84.2,0,0,0-3.7,8.4.6.6,0,0,1-.3.6h-.4a5.2,5.2,0,0,1-2.4-.7,4,4,0,0,1-1.4-1.1,1.2,1.2,0,0,1-.3-.9c-.1-.2-.1-.3,0-.4a17.1,17.1,0,0,1,.3-3.1c.2-1.1.5-2.3.7-3.4s.5-2.2.8-3.2.5-2,.8-2.9.5-1.3.7-2l.5-1.6.4-1.1c.3-.8.5-1.6.8-2.3a18.2,18.2,0,0,1,.8-1.9c.2-.6.5-1.2.7-1.7v-.2l.2-.4a1.3,1.3,0,0,1,.5-.6.8.8,0,0,1,.8-.1l1.6.7a6.2,6.2,0,0,1,2,1.6l.2.3.2.4a4.3,4.3,0,0,1,.1.5,3.2,3.2,0,0,1-.6,1.7h0a4.3,4.3,0,0,0-.5,1l-.7,1.4-.6,1.2-.4,1.1c-.2.7-.5,1.4-.7,2.1S569.7,368.1,569.4,368.9Z"/><path class="cls-22" d="M614.4,367.6a.9.9,0,0,1,.7.9,2,2,0,0,1-.1.7l-1.4,2.6c-.5,1-1.2,2.1-1.9,3.2a35.5,35.5,0,0,1-2.3,3.1,8.7,8.7,0,0,1-2.6,2.2,2.7,2.7,0,0,1-1.6.6h-1.5l-1.5-.3a4.3,4.3,0,0,1-2.1-2.1,11.6,11.6,0,0,1-.5-3.4,14.9,14.9,0,0,1-3.7,4.1,6,6,0,0,1-3.9,1.4,7,7,0,0,1-2.7-.8,4.3,4.3,0,0,1-2-2.2,7.9,7.9,0,0,1-.6-4,24.9,24.9,0,0,1,1.5-6.4,24.6,24.6,0,0,1,3.2-6.1,15.3,15.3,0,0,1,3.6-3.6,7.9,7.9,0,0,1,3.6-1.5,7.8,7.8,0,0,1,3.1.3,3,3,0,0,1,1.6,1.3,3.7,3.7,0,0,1,.8,1.8,10.1,10.1,0,0,0,.7-1.5l.3-.6a2,2,0,0,1,.4-.8l.6-.5a.7.7,0,0,1,.6-.1l1.8.9a9.1,9.1,0,0,1,2.1,1.8,2,2,0,0,1,.4.8v.9a7.7,7.7,0,0,1-.6,1.5l-.9,1.6-1.3,2.6-1.4,3a26.3,26.3,0,0,0-1,3,5.3,5.3,0,0,0-.3,2.4,1.2,1.2,0,0,0,.8,1.2,1.7,1.7,0,0,0,1.7-.5,9.1,9.1,0,0,0,1.9-2,14.3,14.3,0,0,0,1.6-2.4l1.1-2.1a2.1,2.1,0,0,1,.4-.6A1.7,1.7,0,0,1,614.4,367.6ZM601.6,366a10.8,10.8,0,0,0,.5-2.5,3.3,3.3,0,0,0-.1-1.5,2.9,2.9,0,0,0-.4-.8l-.5-.2h-.7a4.5,4.5,0,0,0-1.4.7,12.5,12.5,0,0,0-2,2.3,29.7,29.7,0,0,0-2.5,4.6,20,20,0,0,0-1.7,4.8,7.5,7.5,0,0,0-.2,2.4c.2.6.5,1,1,1.1a3.3,3.3,0,0,0,2.8-1.3,18,18,0,0,0,2.4-3.5,36.1,36.1,0,0,0,2.5-5.2c0-.1,0-.1.1-.2Z"/><path class="cls-22" d="M613.2,367.3a24.6,24.6,0,0,1,3.1-6.1,15.3,15.3,0,0,1,3.6-3.6,7.9,7.9,0,0,1,3.6-1.5,7.6,7.6,0,0,1,3.1.3,3.8,3.8,0,0,1,1.6,1.1,5.3,5.3,0,0,1,.8,1.7,11,11,0,0,1,.2,1.8,8.1,8.1,0,0,1-.1,1.6,1.2,1.2,0,0,1-.7.7l-1,.4H627v-.2c.1-1,0-1.6-.3-1.9s-.5-.5-.7-.5h-.7a5.9,5.9,0,0,0-1.4.7,12.8,12.8,0,0,0-1.9,2.3,28.8,28.8,0,0,0-2.6,4.6,17.7,17.7,0,0,0-1.1,2.8l-.4,1.4a5.9,5.9,0,0,0-.1,1.9,3.9,3.9,0,0,0,.4,1.8,2.8,2.8,0,0,0,1.5,1.3h.8a6.9,6.9,0,0,0,2.5-.1,8.5,8.5,0,0,0,2.2-.9,8.3,8.3,0,0,0,1.8-1.3l1.4-1.3.4-.6.4-.4.2-.3a15,15,0,0,0,1.5-2.3c.5-.8.8-1.5,1.1-2a.7.7,0,0,1,.4-.6,1.4,1.4,0,0,1,1.3-.5.9.9,0,0,1,.6.4,4.3,4.3,0,0,1,.1.5,2.5,2.5,0,0,1-.2.7l-2.1,3.9a11.4,11.4,0,0,1-1.4,2.4c-.1.1-.2.3-.4.4a4.3,4.3,0,0,0-.4.7,31.7,31.7,0,0,1-3.7,3.4,9.3,9.3,0,0,1-5.2,1.8h-2a9.1,9.1,0,0,1-4.3-1.3,5.9,5.9,0,0,1-2.3-2.4,7.7,7.7,0,0,1-.8-2.7c0-1,0-2,.1-3h0A33.7,33.7,0,0,1,613.2,367.3Z"/><path class="cls-22" d="M641.9,358.7a2,2,0,0,1,.4.8,3.4,3.4,0,0,1-.1.9,3.7,3.7,0,0,1-.5,1.5l-.9,1.6-1.3,2.6c-.5,1-1,2-1.4,3a26.3,26.3,0,0,0-1,3,5.3,5.3,0,0,0-.3,2.4,1.2,1.2,0,0,0,.8,1.2,1.7,1.7,0,0,0,1.7-.5,9.1,9.1,0,0,0,1.9-2,14.3,14.3,0,0,0,1.6-2.4,19,19,0,0,1,1.1-2.1l.4-.6a1.5,1.5,0,0,1,1.3-.5c.5.2.8.5.8.9a2.5,2.5,0,0,1-.2.7l-1.3,2.6c-.5,1-1.2,2.1-1.9,3.2a35.5,35.5,0,0,1-2.3,3.1,8.7,8.7,0,0,1-2.6,2.2,2.7,2.7,0,0,1-1.6.6H635l-1.5-.3a3.9,3.9,0,0,1-2-2,7.3,7.3,0,0,1-.6-3,17.6,17.6,0,0,1,.4-3.8,30.6,30.6,0,0,1,1-4.1,71.6,71.6,0,0,1,4.1-10.4,2,2,0,0,1,.4-.8l.6-.5a.7.7,0,0,1,.6-.1l1.8.9A9.1,9.1,0,0,1,641.9,358.7Zm-2.1-4.9a2.3,2.3,0,0,1-.5-2.1,5,5,0,0,1,.7-1.9l.7-1.1.5-.8.5-.7.7-.8.8-.4q.3-.2.9.3l1.1.9,1.1,1.5a6.4,6.4,0,0,1,.6,1.8,2,2,0,0,1-.2,1.7l-.9,1.2c-.3.5-.9,1.2-1.5,2a1.4,1.4,0,0,1-1,.5l-1.2-.4a5.7,5.7,0,0,1-1.3-.8Z"/><path class="cls-22" d="M661.2,368.2c-.6,1.2-1.3,2.6-2.2,4.2a22.1,22.1,0,0,1-3,4.5,15.2,15.2,0,0,1-3.8,3.4,5.5,5.5,0,0,1-4.5.5,4.1,4.1,0,0,1-2.2-1.3,5.4,5.4,0,0,1-1.3-2.2,12.3,12.3,0,0,1-.7-2.9,15,15,0,0,1,0-3,22,22,0,0,1,.6-3.7c.3-1.1.7-2.2,1-3.1a25.5,25.5,0,0,1,1.3-2.9,17.7,17.7,0,0,1,2.7-3.9,10.2,10.2,0,0,1,3-2.1,3.8,3.8,0,0,1,3.7.4,4.5,4.5,0,0,1,1.7-1.1,3.4,3.4,0,0,1,2-.2,3.2,3.2,0,0,1,2.4,1.4,5.2,5.2,0,0,1,1,2.7,18.2,18.2,0,0,1,0,3.3c-.2,1.2-.3,2.2-.5,2.9a10.4,10.4,0,0,0,3.5-1.7,15.8,15.8,0,0,0,2.5-1.9l.7-.5c.2-.1.3-.2.5-.1s.2.3.2.7a1.4,1.4,0,0,1,0,.9,3.4,3.4,0,0,1-.6,1.5,13.8,13.8,0,0,1-3.4,2.6A12.6,12.6,0,0,1,661.2,368.2Zm-12.1,3.1a9.1,9.1,0,0,0-.5,3.3,3.7,3.7,0,0,0,.3,1.7,1.3,1.3,0,0,0,.9.9,2.3,2.3,0,0,0,2.1-.4,8.6,8.6,0,0,0,2.2-2.1,27.9,27.9,0,0,0,2-3.1c.6-1.2,1.1-2.4,1.6-3.7a6.6,6.6,0,0,1-2-1.1,5.9,5.9,0,0,1-1.7-2.5,6.7,6.7,0,0,1-.4-3.1,11.7,11.7,0,0,0-1.8,2.6,34.5,34.5,0,0,0-1.4,3.4C649.9,368.5,649.5,369.9,649.1,371.3Zm17.1-20.8a5.6,5.6,0,0,1-.4,1.2,6.1,6.1,0,0,1-.7,1.4l-.9.9a1.4,1.4,0,0,1-1.1.1,8.5,8.5,0,0,1-1.8-1l-2-1.4-1.8-1.3-1-.8c-.4-.4-.6-.7-.7-.7l.4-.9c.1-.2.4-.3,1-.5l2.1-.5h2.5a8.6,8.6,0,0,1,2.4.4,4.3,4.3,0,0,1,1.7,1.2A2.2,2.2,0,0,1,666.2,350.5Zm-9.8,11.1a3.5,3.5,0,0,0,.1,1.5l.6,1.1.9.7.7.3a11.3,11.3,0,0,0,.7-5,1.6,1.6,0,0,0-.6-.8,1.6,1.6,0,0,0-1-.1,1.6,1.6,0,0,0-.8.6A3.4,3.4,0,0,0,656.4,361.6Z"/><path class="cls-22" d="M669.4,368.9c.9-1.7,2-3.3,3.1-5a31.9,31.9,0,0,1,3.4-4.4,14.9,14.9,0,0,1,3.3-3,3,3,0,0,1,3-.3l1.7.9a8.6,8.6,0,0,1,1.8,1.6,1.1,1.1,0,0,1,.3.8,1.4,1.4,0,0,1,0,.9,7.7,7.7,0,0,1-.6,1.5l-.9,1.6-1.3,2.6-1.3,3a28.5,28.5,0,0,0-1.1,3,11.2,11.2,0,0,0-.3,2.4,1.4,1.4,0,0,0,.8,1.2,2.5,2.5,0,0,0,1.8-.5,9.1,9.1,0,0,0,1.9-2c.5-.8,1.1-1.6,1.6-2.5l1.1-2.1c0-.2.2-.4.3-.6a2,2,0,0,1,1.4-.4c.5.1.7.3.7.8a2.5,2.5,0,0,1-.1.8c-.3.6-.7,1.5-1.3,2.5a28,28,0,0,1-2,3.2,37.1,37.1,0,0,1-2.3,3.2,9.9,9.9,0,0,1-2.5,2.2,5.8,5.8,0,0,1-1.7.6,7.5,7.5,0,0,1-1.5,0,4,4,0,0,1-1.5-.3,3.8,3.8,0,0,1-2.3-3,20,20,0,0,1,0-4.9,28.7,28.7,0,0,1,1.4-5.6c.6-2,1.2-3.7,1.8-5.2H678a30.5,30.5,0,0,0-4.1,5,48.7,48.7,0,0,0-3.8,6,66.1,66.1,0,0,0-3.7,8.4,1.6,1.6,0,0,1-.3.6h-.5a5.2,5.2,0,0,1-2.3-.7,4,4,0,0,1-1.4-1.1,1.3,1.3,0,0,1-.4-.9v-.4c.1-1,.2-2,.4-3.1s.4-2.3.7-3.4a29.9,29.9,0,0,1,.8-3.2,20.2,20.2,0,0,1,.8-2.9,15.9,15.9,0,0,1,.7-2l.5-1.6.4-1.1a15.5,15.5,0,0,1,.8-2.3,18.2,18.2,0,0,1,.8-1.9l.6-1.7c0-.1.1-.1.1-.2l.2-.4a2.1,2.1,0,0,1,.4-.6.8.8,0,0,1,.8-.1,6.8,6.8,0,0,1,1.7.7,7.4,7.4,0,0,1,2,1.6c0,.1.1.2.2.3l.2.4v.5a3,3,0,0,1-.5,1.7h0a.1.1,0,0,1-.1.1,6.4,6.4,0,0,0-.4,1c-.3.5-.5,1-.7,1.4l-.6,1.2-.4,1.1-.8,2.1C669.9,367.3,669.6,368.1,669.4,368.9Z"/></g></g></g></svg>